<svg width="375" height="395" viewBox="0 0 375 395" fill="none" xmlns="http://www.w3.org/2000/svg">
<g filter="url(#filter0_d_6_1574)">
<rect x="12.1948" y="6" width="350.61" height="371.694" rx="15" fill="#272E35"/>
</g>
<path d="M39.9487 340.875V345.657H39.1643V342.382L37.7056 345.657H37.162L35.6964 342.382V345.657H34.9119V340.875H35.7583L37.4372 344.625L39.1093 340.875H39.9487ZM42.6242 345.719C42.2664 345.719 41.943 345.639 41.654 345.479C41.365 345.313 41.138 345.084 40.9728 344.79C40.8077 344.492 40.7251 344.148 40.7251 343.758C40.7251 343.373 40.81 343.031 40.9797 342.733C41.1494 342.435 41.3811 342.206 41.6747 342.045C41.9683 341.884 42.2963 341.804 42.6586 341.804C43.021 341.804 43.349 341.884 43.6426 342.045C43.9362 342.206 44.1678 342.435 44.3376 342.733C44.5073 343.031 44.5922 343.373 44.5922 343.758C44.5922 344.144 44.505 344.485 44.3307 344.784C44.1564 345.082 43.9178 345.313 43.6151 345.479C43.3169 345.639 42.9866 345.719 42.6242 345.719ZM42.6242 345.038C42.8261 345.038 43.0142 344.99 43.1885 344.894C43.3674 344.797 43.5119 344.653 43.622 344.46C43.7321 344.268 43.7871 344.034 43.7871 343.758C43.7871 343.483 43.7343 343.251 43.6288 343.063C43.5233 342.871 43.3834 342.726 43.2091 342.63C43.0348 342.534 42.8467 342.485 42.6449 342.485C42.443 342.485 42.255 342.534 42.0807 342.63C41.9109 342.726 41.7756 342.871 41.6747 343.063C41.5738 343.251 41.5233 343.483 41.5233 343.758C41.5233 344.167 41.6265 344.483 41.8329 344.708C42.044 344.928 42.3077 345.038 42.6242 345.038ZM46.8332 344.956L47.9066 341.866H48.7392L47.2942 345.657H46.3584L44.9203 341.866H45.7598L46.8332 344.956ZM49.7312 341.364C49.589 341.364 49.4698 341.316 49.3734 341.219C49.2771 341.123 49.2289 341.004 49.2289 340.862C49.2289 340.719 49.2771 340.6 49.3734 340.504C49.4698 340.407 49.589 340.359 49.7312 340.359C49.8689 340.359 49.9858 340.407 50.0822 340.504C50.1785 340.6 50.2267 340.719 50.2267 340.862C50.2267 341.004 50.1785 341.123 50.0822 341.219C49.9858 341.316 49.8689 341.364 49.7312 341.364ZM50.1166 341.866V345.657H49.3321V341.866H50.1166ZM54.6213 343.669C54.6213 343.811 54.6121 343.94 54.5937 344.054H51.6969C51.7198 344.357 51.8322 344.6 52.0341 344.784C52.2359 344.967 52.4836 345.059 52.7772 345.059C53.1992 345.059 53.4974 344.882 53.6717 344.529H54.5181C54.4034 344.878 54.1947 345.164 53.8919 345.389C53.5937 345.609 53.2222 345.719 52.7772 345.719C52.4148 345.719 52.0891 345.639 51.8001 345.479C51.5157 345.313 51.2909 345.084 51.1258 344.79C50.9652 344.492 50.885 344.148 50.885 343.758C50.885 343.368 50.9629 343.027 51.1189 342.733C51.2795 342.435 51.5019 342.206 51.7864 342.045C52.0754 341.884 52.4056 341.804 52.7772 341.804C53.135 341.804 53.4538 341.882 53.7336 342.038C54.0135 342.194 54.2313 342.414 54.3873 342.699C54.5433 342.979 54.6213 343.302 54.6213 343.669ZM53.8024 343.421C53.7979 343.132 53.6946 342.901 53.4928 342.726C53.291 342.552 53.041 342.465 52.7428 342.465C52.4721 342.465 52.2405 342.552 52.0478 342.726C51.8552 342.896 51.7405 343.128 51.7038 343.421H53.8024ZM56.7694 345.719C56.4712 345.719 56.2029 345.667 55.9643 345.561C55.7304 345.451 55.5446 345.304 55.407 345.121C55.2694 344.933 55.196 344.724 55.1868 344.495H55.9987C56.0125 344.655 56.0882 344.79 56.2258 344.901C56.368 345.006 56.5446 345.059 56.7556 345.059C56.9758 345.059 57.1455 345.018 57.2648 344.935C57.3887 344.848 57.4506 344.738 57.4506 344.605C57.4506 344.462 57.3818 344.357 57.2442 344.288C57.1111 344.219 56.8978 344.144 56.6042 344.061C56.3198 343.983 56.0882 343.907 55.9093 343.834C55.7304 343.761 55.5744 343.648 55.4414 343.497C55.3129 343.346 55.2487 343.146 55.2487 342.898C55.2487 342.696 55.3083 342.513 55.4276 342.348C55.5469 342.178 55.7166 342.045 55.9368 341.949C56.1616 341.852 56.4185 341.804 56.7075 341.804C57.1387 341.804 57.485 341.914 57.7465 342.134C58.0125 342.35 58.1547 342.646 58.1731 343.022H57.3887C57.3749 342.852 57.3061 342.717 57.1822 342.616C57.0584 342.515 56.8909 342.465 56.6799 342.465C56.4735 342.465 56.3152 342.504 56.2051 342.582C56.0951 342.66 56.04 342.763 56.04 342.891C56.04 342.992 56.0767 343.077 56.1501 343.146C56.2235 343.215 56.3129 343.27 56.4185 343.311C56.524 343.348 56.6799 343.396 56.8864 343.456C57.1616 343.529 57.3864 343.605 57.5607 343.683C57.7396 343.756 57.8933 343.866 58.0217 344.013C58.1501 344.16 58.2167 344.355 58.2212 344.598C58.2212 344.813 58.1616 345.006 58.0423 345.176C57.9231 345.346 57.7533 345.479 57.5332 345.575C57.3176 345.671 57.063 345.719 56.7694 345.719ZM63.9457 340.875V341.515H62.6728V345.657H61.8884V341.515H60.6085V340.875H63.9457ZM65.1392 341.364C64.997 341.364 64.8778 341.316 64.7814 341.219C64.6851 341.123 64.6369 341.004 64.6369 340.862C64.6369 340.719 64.6851 340.6 64.7814 340.504C64.8778 340.407 64.997 340.359 65.1392 340.359C65.2768 340.359 65.3938 340.407 65.4902 340.504C65.5865 340.6 65.6347 340.719 65.6347 340.862C65.6347 341.004 65.5865 341.123 65.4902 341.219C65.3938 341.316 65.2768 341.364 65.1392 341.364ZM65.5246 341.866V345.657H64.7401V341.866H65.5246ZM66.293 343.758C66.293 343.368 66.3709 343.027 66.5269 342.733C66.6875 342.435 66.9076 342.206 67.1875 342.045C67.4673 341.884 67.7884 341.804 68.1508 341.804C68.6095 341.804 68.988 341.914 69.2861 342.134C69.5889 342.35 69.793 342.66 69.8985 343.063H69.0522C68.9834 342.875 68.8733 342.729 68.7219 342.623C68.5705 342.518 68.3801 342.465 68.1508 342.465C67.8297 342.465 67.5728 342.579 67.3801 342.809C67.1921 343.034 67.098 343.35 67.098 343.758C67.098 344.167 67.1921 344.485 67.3801 344.715C67.5728 344.944 67.8297 345.059 68.1508 345.059C68.6049 345.059 68.9054 344.859 69.0522 344.46H69.8985C69.7884 344.846 69.582 345.153 69.2792 345.382C68.9765 345.607 68.6003 345.719 68.1508 345.719C67.7884 345.719 67.4673 345.639 67.1875 345.479C66.9076 345.313 66.6875 345.084 66.5269 344.79C66.3709 344.492 66.293 344.148 66.293 343.758ZM72.1803 343.765L73.928 345.657H72.8684L71.4647 344.027V345.657H70.6802V340.566H71.4647V343.524L72.8408 341.866H73.928L72.1803 343.765ZM77.9651 343.669C77.9651 343.811 77.9559 343.94 77.9376 344.054H75.0407C75.0636 344.357 75.176 344.6 75.3779 344.784C75.5797 344.967 75.8274 345.059 76.121 345.059C76.543 345.059 76.8412 344.882 77.0155 344.529H77.8619C77.7472 344.878 77.5385 345.164 77.2357 345.389C76.9375 345.609 76.566 345.719 76.121 345.719C75.7586 345.719 75.4329 345.639 75.1439 345.479C74.8595 345.313 74.6347 345.084 74.4696 344.79C74.3091 344.492 74.2288 344.148 74.2288 343.758C74.2288 343.368 74.3068 343.027 74.4627 342.733C74.6233 342.435 74.8458 342.206 75.1302 342.045C75.4192 341.884 75.7494 341.804 76.121 341.804C76.4788 341.804 76.7976 341.882 77.0774 342.038C77.3573 342.194 77.5752 342.414 77.7311 342.699C77.8871 342.979 77.9651 343.302 77.9651 343.669ZM77.1463 343.421C77.1417 343.132 77.0385 342.901 76.8366 342.726C76.6348 342.552 76.3848 342.465 76.0866 342.465C75.816 342.465 75.5843 342.552 75.3916 342.726C75.199 342.896 75.0843 343.128 75.0476 343.421H77.1463ZM79.6522 342.506V344.605C79.6522 344.747 79.6843 344.85 79.7485 344.914C79.8173 344.974 79.932 345.004 80.0925 345.004H80.5742V345.657H79.9549C79.6017 345.657 79.3311 345.575 79.143 345.41C78.9549 345.245 78.8609 344.976 78.8609 344.605V342.506H78.4136V341.866H78.8609V340.923H79.6522V341.866H80.5742V342.506H79.6522Z" fill="white" fill-opacity="0.75"/>
<rect x="34.3959" y="310.012" width="19.5914" height="18.7989" rx="3.93191" fill="#87FFE9"/>
<path d="M153.045 340.875V345.657H152.26V342.382L150.801 345.657H150.258L148.792 342.382V345.657H148.008V340.875H148.854L150.533 344.625L152.205 340.875H153.045ZM157.509 341.866V345.657H156.725V345.21C156.601 345.366 156.438 345.49 156.236 345.582C156.039 345.669 155.828 345.712 155.603 345.712C155.305 345.712 155.037 345.65 154.798 345.527C154.564 345.403 154.378 345.219 154.241 344.976C154.108 344.733 154.041 344.439 154.041 344.095V341.866H154.819V343.978C154.819 344.318 154.904 344.579 155.073 344.763C155.243 344.942 155.475 345.031 155.768 345.031C156.062 345.031 156.293 344.942 156.463 344.763C156.638 344.579 156.725 344.318 156.725 343.978V341.866H157.509ZM159.92 345.719C159.622 345.719 159.354 345.667 159.115 345.561C158.881 345.451 158.695 345.304 158.558 345.121C158.42 344.933 158.347 344.724 158.338 344.494H159.15C159.163 344.655 159.239 344.79 159.377 344.9C159.519 345.006 159.695 345.059 159.906 345.059C160.127 345.059 160.296 345.017 160.416 344.935C160.54 344.848 160.601 344.738 160.601 344.605C160.601 344.462 160.533 344.357 160.395 344.288C160.262 344.219 160.049 344.144 159.755 344.061C159.471 343.983 159.239 343.907 159.06 343.834C158.881 343.761 158.725 343.648 158.592 343.497C158.464 343.345 158.4 343.146 158.4 342.898C158.4 342.696 158.459 342.513 158.578 342.348C158.698 342.178 158.867 342.045 159.088 341.949C159.312 341.852 159.569 341.804 159.858 341.804C160.29 341.804 160.636 341.914 160.897 342.134C161.163 342.35 161.306 342.646 161.324 343.022H160.54C160.526 342.852 160.457 342.717 160.333 342.616C160.209 342.515 160.042 342.465 159.831 342.465C159.624 342.465 159.466 342.504 159.356 342.582C159.246 342.66 159.191 342.763 159.191 342.891C159.191 342.992 159.228 343.077 159.301 343.146C159.374 343.215 159.464 343.27 159.569 343.311C159.675 343.348 159.831 343.396 160.037 343.455C160.312 343.529 160.537 343.605 160.712 343.683C160.89 343.756 161.044 343.866 161.173 344.013C161.301 344.16 161.368 344.355 161.372 344.598C161.372 344.813 161.312 345.006 161.193 345.176C161.074 345.345 160.904 345.478 160.684 345.575C160.468 345.671 160.214 345.719 159.92 345.719ZM162.619 341.364C162.477 341.364 162.357 341.316 162.261 341.219C162.165 341.123 162.116 341.004 162.116 340.861C162.116 340.719 162.165 340.6 162.261 340.504C162.357 340.407 162.477 340.359 162.619 340.359C162.756 340.359 162.873 340.407 162.97 340.504C163.066 340.6 163.114 340.719 163.114 340.861C163.114 341.004 163.066 341.123 162.97 341.219C162.873 341.316 162.756 341.364 162.619 341.364ZM163.004 341.866V345.657H162.22V341.866H163.004ZM163.772 343.758C163.772 343.368 163.85 343.027 164.006 342.733C164.167 342.435 164.387 342.205 164.667 342.045C164.947 341.884 165.268 341.804 165.63 341.804C166.089 341.804 166.467 341.914 166.766 342.134C167.068 342.35 167.273 342.66 167.378 343.063H166.532C166.463 342.875 166.353 342.728 166.201 342.623C166.05 342.517 165.86 342.465 165.63 342.465C165.309 342.465 165.052 342.579 164.86 342.809C164.672 343.033 164.578 343.35 164.578 343.758C164.578 344.166 164.672 344.485 164.86 344.715C165.052 344.944 165.309 345.059 165.63 345.059C166.084 345.059 166.385 344.859 166.532 344.46H167.378C167.268 344.845 167.062 345.153 166.759 345.382C166.456 345.607 166.08 345.719 165.63 345.719C165.268 345.719 164.947 345.639 164.667 345.478C164.387 345.313 164.167 345.084 164.006 344.79C163.85 344.492 163.772 344.148 163.772 343.758ZM173.037 340.875V341.515H171.764V345.657H170.979V341.515H169.699V340.875H173.037ZM174.23 341.364C174.088 341.364 173.969 341.316 173.872 341.219C173.776 341.123 173.728 341.004 173.728 340.861C173.728 340.719 173.776 340.6 173.872 340.504C173.969 340.407 174.088 340.359 174.23 340.359C174.368 340.359 174.485 340.407 174.581 340.504C174.677 340.6 174.726 340.719 174.726 340.861C174.726 341.004 174.677 341.123 174.581 341.219C174.485 341.316 174.368 341.364 174.23 341.364ZM174.616 341.866V345.657H173.831V341.866H174.616ZM175.384 343.758C175.384 343.368 175.462 343.027 175.618 342.733C175.778 342.435 175.999 342.205 176.278 342.045C176.558 341.884 176.879 341.804 177.242 341.804C177.7 341.804 178.079 341.914 178.377 342.134C178.68 342.35 178.884 342.66 178.989 343.063H178.143C178.074 342.875 177.964 342.728 177.813 342.623C177.661 342.517 177.471 342.465 177.242 342.465C176.921 342.465 176.664 342.579 176.471 342.809C176.283 343.033 176.189 343.35 176.189 343.758C176.189 344.166 176.283 344.485 176.471 344.715C176.664 344.944 176.921 345.059 177.242 345.059C177.696 345.059 177.996 344.859 178.143 344.46H178.989C178.879 344.845 178.673 345.153 178.37 345.382C178.067 345.607 177.691 345.719 177.242 345.719C176.879 345.719 176.558 345.639 176.278 345.478C175.999 345.313 175.778 345.084 175.618 344.79C175.462 344.492 175.384 344.148 175.384 343.758ZM181.271 343.765L183.019 345.657H181.959L180.556 344.027V345.657H179.771V340.566H180.556V343.524L181.932 341.866H183.019L181.271 343.765ZM187.056 343.669C187.056 343.811 187.047 343.939 187.029 344.054H184.132C184.155 344.357 184.267 344.6 184.469 344.783C184.671 344.967 184.918 345.059 185.212 345.059C185.634 345.059 185.932 344.882 186.106 344.529H186.953C186.838 344.878 186.629 345.164 186.327 345.389C186.028 345.609 185.657 345.719 185.212 345.719C184.85 345.719 184.524 345.639 184.235 345.478C183.95 345.313 183.726 345.084 183.561 344.79C183.4 344.492 183.32 344.148 183.32 343.758C183.32 343.368 183.398 343.027 183.554 342.733C183.714 342.435 183.937 342.205 184.221 342.045C184.51 341.884 184.84 341.804 185.212 341.804C185.57 341.804 185.889 341.882 186.168 342.038C186.448 342.194 186.666 342.414 186.822 342.699C186.978 342.978 187.056 343.302 187.056 343.669ZM186.237 343.421C186.233 343.132 186.129 342.9 185.928 342.726C185.726 342.552 185.476 342.465 185.178 342.465C184.907 342.465 184.675 342.552 184.483 342.726C184.29 342.896 184.175 343.127 184.139 343.421H186.237ZM188.743 342.506V344.605C188.743 344.747 188.775 344.85 188.839 344.914C188.908 344.974 189.023 345.004 189.184 345.004H189.665V345.657H189.046C188.693 345.657 188.422 345.575 188.234 345.41C188.046 345.244 187.952 344.976 187.952 344.605V342.506H187.505V341.866H187.952V340.923H188.743V341.866H189.665V342.506H188.743Z" fill="white" fill-opacity="0.75"/>
<rect x="147.492" y="310.012" width="19.5914" height="18.7989" rx="3.93191" fill="#13B497"/>
<path d="M252.341 340.875V341.515H250.311V342.926H251.894V343.566H250.311V345.657H249.527V340.875H252.341ZM254.713 345.719C254.355 345.719 254.031 345.639 253.742 345.478C253.453 345.313 253.226 345.084 253.061 344.79C252.896 344.492 252.813 344.148 252.813 343.758C252.813 343.373 252.898 343.031 253.068 342.733C253.238 342.435 253.469 342.205 253.763 342.045C254.057 341.884 254.385 341.804 254.747 341.804C255.109 341.804 255.437 341.884 255.731 342.045C256.024 342.205 256.256 342.435 256.426 342.733C256.596 343.031 256.68 343.373 256.68 343.758C256.68 344.144 256.593 344.485 256.419 344.783C256.245 345.082 256.006 345.313 255.703 345.478C255.405 345.639 255.075 345.719 254.713 345.719ZM254.713 345.038C254.914 345.038 255.102 344.99 255.277 344.894C255.456 344.797 255.6 344.653 255.71 344.46C255.82 344.267 255.875 344.033 255.875 343.758C255.875 343.483 255.823 343.251 255.717 343.063C255.612 342.871 255.472 342.726 255.297 342.63C255.123 342.533 254.935 342.485 254.733 342.485C254.531 342.485 254.343 342.533 254.169 342.63C253.999 342.726 253.864 342.871 253.763 343.063C253.662 343.251 253.612 343.483 253.612 343.758C253.612 344.166 253.715 344.483 253.921 344.708C254.132 344.928 254.396 345.038 254.713 345.038ZM259.1 345.719C258.743 345.719 258.419 345.639 258.13 345.478C257.841 345.313 257.614 345.084 257.449 344.79C257.284 344.492 257.201 344.148 257.201 343.758C257.201 343.373 257.286 343.031 257.456 342.733C257.626 342.435 257.857 342.205 258.151 342.045C258.444 341.884 258.772 341.804 259.135 341.804C259.497 341.804 259.825 341.884 260.119 342.045C260.412 342.205 260.644 342.435 260.814 342.733C260.983 343.031 261.068 343.373 261.068 343.758C261.068 344.144 260.981 344.485 260.807 344.783C260.633 345.082 260.394 345.313 260.091 345.478C259.793 345.639 259.463 345.719 259.1 345.719ZM259.1 345.038C259.302 345.038 259.49 344.99 259.665 344.894C259.844 344.797 259.988 344.653 260.098 344.46C260.208 344.267 260.263 344.033 260.263 343.758C260.263 343.483 260.211 343.251 260.105 343.063C260 342.871 259.86 342.726 259.685 342.63C259.511 342.533 259.323 342.485 259.121 342.485C258.919 342.485 258.731 342.533 258.557 342.63C258.387 342.726 258.252 342.871 258.151 343.063C258.05 343.251 257.999 343.483 257.999 343.758C257.999 344.166 258.103 344.483 258.309 344.708C258.52 344.928 258.784 345.038 259.1 345.038ZM262.759 342.506V344.605C262.759 344.747 262.791 344.85 262.855 344.914C262.924 344.974 263.039 345.004 263.199 345.004H263.681V345.657H263.062C262.708 345.657 262.438 345.575 262.25 345.41C262.062 345.244 261.968 344.976 261.968 344.605V342.506H261.52V341.866H261.968V340.923H262.759V341.866H263.681V342.506H262.759ZM265.188 342.43C265.321 342.247 265.503 342.098 265.732 341.983C265.966 341.864 266.225 341.804 266.509 341.804C266.844 341.804 267.147 341.884 267.418 342.045C267.688 342.205 267.902 342.435 268.058 342.733C268.214 343.027 268.292 343.364 268.292 343.744C268.292 344.125 268.214 344.467 268.058 344.77C267.902 345.068 267.686 345.302 267.411 345.472C267.14 345.637 266.84 345.719 266.509 345.719C266.216 345.719 265.954 345.662 265.725 345.547C265.5 345.433 265.321 345.286 265.188 345.107V345.657H264.404V340.566H265.188V342.43ZM267.493 343.744C267.493 343.483 267.438 343.258 267.328 343.07C267.223 342.877 267.081 342.733 266.902 342.637C266.727 342.536 266.539 342.485 266.337 342.485C266.14 342.485 265.952 342.536 265.773 342.637C265.599 342.738 265.457 342.884 265.347 343.077C265.241 343.27 265.188 343.497 265.188 343.758C265.188 344.02 265.241 344.249 265.347 344.446C265.457 344.639 265.599 344.786 265.773 344.887C265.952 344.988 266.14 345.038 266.337 345.038C266.539 345.038 266.727 344.988 266.902 344.887C267.081 344.781 267.223 344.63 267.328 344.433C267.438 344.235 267.493 344.006 267.493 343.744ZM268.806 343.744C268.806 343.364 268.884 343.027 269.04 342.733C269.2 342.439 269.416 342.212 269.687 342.052C269.962 341.887 270.265 341.804 270.595 341.804C270.893 341.804 271.152 341.864 271.372 341.983C271.597 342.098 271.776 342.242 271.909 342.416V341.866H272.7V345.657H271.909V345.093C271.776 345.272 271.595 345.421 271.366 345.54C271.136 345.66 270.875 345.719 270.581 345.719C270.255 345.719 269.957 345.637 269.687 345.472C269.416 345.302 269.2 345.068 269.04 344.77C268.884 344.467 268.806 344.125 268.806 343.744ZM271.909 343.758C271.909 343.497 271.854 343.27 271.744 343.077C271.638 342.884 271.499 342.738 271.324 342.637C271.15 342.536 270.962 342.485 270.76 342.485C270.558 342.485 270.37 342.536 270.196 342.637C270.021 342.733 269.879 342.877 269.769 343.07C269.664 343.258 269.611 343.483 269.611 343.744C269.611 344.006 269.664 344.235 269.769 344.433C269.879 344.63 270.021 344.781 270.196 344.887C270.375 344.988 270.563 345.038 270.76 345.038C270.962 345.038 271.15 344.988 271.324 344.887C271.499 344.786 271.638 344.639 271.744 344.446C271.854 344.249 271.909 344.02 271.909 343.758ZM274.515 340.566V345.657H273.731V340.566H274.515ZM276.329 340.566V345.657H275.545V340.566H276.329ZM282.236 340.875V341.515H280.963V345.657H280.179V341.515H278.899V340.875H282.236ZM283.43 341.364C283.288 341.364 283.168 341.316 283.072 341.219C282.976 341.123 282.927 341.004 282.927 340.861C282.927 340.719 282.976 340.6 283.072 340.504C283.168 340.407 283.288 340.359 283.43 340.359C283.567 340.359 283.684 340.407 283.781 340.504C283.877 340.6 283.925 340.719 283.925 340.861C283.925 341.004 283.877 341.123 283.781 341.219C283.684 341.316 283.567 341.364 283.43 341.364ZM283.815 341.866V345.657H283.031V341.866H283.815ZM284.583 343.758C284.583 343.368 284.661 343.027 284.817 342.733C284.978 342.435 285.198 342.205 285.478 342.045C285.758 341.884 286.079 341.804 286.441 341.804C286.9 341.804 287.278 341.914 287.577 342.134C287.879 342.35 288.083 342.66 288.189 343.063H287.343C287.274 342.875 287.164 342.728 287.012 342.623C286.861 342.517 286.671 342.465 286.441 342.465C286.12 342.465 285.863 342.579 285.671 342.809C285.483 343.033 285.388 343.35 285.388 343.758C285.388 344.166 285.483 344.485 285.671 344.715C285.863 344.944 286.12 345.059 286.441 345.059C286.895 345.059 287.196 344.859 287.343 344.46H288.189C288.079 344.845 287.872 345.153 287.57 345.382C287.267 345.607 286.891 345.719 286.441 345.719C286.079 345.719 285.758 345.639 285.478 345.478C285.198 345.313 284.978 345.084 284.817 344.79C284.661 344.492 284.583 344.148 284.583 343.758ZM290.471 343.765L292.218 345.657H291.159L289.755 344.027V345.657H288.971V340.566H289.755V343.524L291.131 341.866H292.218L290.471 343.765ZM296.256 343.669C296.256 343.811 296.246 343.939 296.228 344.054H293.331C293.354 344.357 293.467 344.6 293.668 344.783C293.87 344.967 294.118 345.059 294.411 345.059C294.834 345.059 295.132 344.882 295.306 344.529H296.152C296.038 344.878 295.829 345.164 295.526 345.389C295.228 345.609 294.856 345.719 294.411 345.719C294.049 345.719 293.723 345.639 293.434 345.478C293.15 345.313 292.925 345.084 292.76 344.79C292.6 344.492 292.519 344.148 292.519 343.758C292.519 343.368 292.597 343.027 292.753 342.733C292.914 342.435 293.136 342.205 293.421 342.045C293.71 341.884 294.04 341.804 294.411 341.804C294.769 341.804 295.088 341.882 295.368 342.038C295.648 342.194 295.866 342.414 296.022 342.699C296.178 342.978 296.256 343.302 296.256 343.669ZM295.437 343.421C295.432 343.132 295.329 342.9 295.127 342.726C294.925 342.552 294.675 342.465 294.377 342.465C294.106 342.465 293.875 342.552 293.682 342.726C293.489 342.896 293.375 343.127 293.338 343.421H295.437ZM297.943 342.506V344.605C297.943 344.747 297.975 344.85 298.039 344.914C298.108 344.974 298.222 345.004 298.383 345.004H298.865V345.657H298.245C297.892 345.657 297.622 345.575 297.433 345.41C297.245 345.244 297.151 344.976 297.151 344.605V342.506H296.704V341.866H297.151V340.923H297.943V341.866H298.865V342.506H297.943Z" fill="white" fill-opacity="0.75"/>
<rect x="249.011" y="310.012" width="19.5914" height="18.7989" rx="3.93191" fill="#0B6050"/>
<path d="M279.432 196.238C280.195 213.522 275.48 230.602 265.966 245.019C256.452 259.436 242.63 270.444 226.493 276.456L210.959 234.329C218.221 231.623 224.441 226.67 228.722 220.182C233.003 213.695 235.125 206.008 234.782 198.231L279.432 196.238Z" fill="#0B6050" stroke="#272E35" stroke-width="3.93191"/>
<path d="M228.331 275.745C210.8 282.768 191.383 283.438 173.414 277.64C155.444 271.842 140.043 259.937 129.853 243.969C119.662 228.002 115.318 208.966 117.566 190.13C119.814 171.294 128.514 153.832 142.173 140.74L173.015 173.256C166.869 179.148 162.954 187.006 161.942 195.482C160.93 203.958 162.885 212.524 167.471 219.71C172.057 226.895 178.987 232.252 187.074 234.861C195.16 237.47 203.897 237.169 211.786 234.009L228.331 275.745Z" fill="#87FFE9" stroke="#272E35" stroke-width="3.93191"/>
<path d="M141.223 141.667C152.413 130.586 166.558 123.002 181.946 119.834C197.335 116.666 213.306 118.049 227.929 123.816C242.552 129.583 255.198 139.487 264.338 152.328C273.478 165.17 278.72 180.399 279.429 196.173L234.781 198.202C234.462 191.103 232.103 184.25 227.99 178.471C223.877 172.693 218.186 168.236 211.606 165.641C205.026 163.046 197.838 162.423 190.913 163.849C183.989 165.275 177.623 168.687 172.588 173.674L141.223 141.667Z" fill="#13B497" stroke="#272E35" stroke-width="3.93191"/>
<path d="M204.485 135.003L234.317 100.539L266.821 100.539" stroke="#13B497" stroke-width="0.982978"/>
<path d="M278.019 93.6105C278.054 93.0606 278.263 92.6319 278.645 92.3244C279.034 92.0169 279.528 91.8631 280.128 91.8631C280.539 91.8631 280.895 91.9371 281.195 92.0849C281.495 92.2327 281.722 92.4338 281.875 92.688C282.028 92.9423 282.104 93.2291 282.104 93.5484C282.104 93.915 282.007 94.2284 281.813 94.4886C281.619 94.7488 281.387 94.9232 281.116 95.0119V95.0474C281.463 95.1539 281.734 95.349 281.928 95.6328C282.122 95.9108 282.219 96.2685 282.219 96.7061C282.219 97.055 282.14 97.3654 281.981 97.6374C281.822 97.9094 281.587 98.1253 281.275 98.2849C280.963 98.4387 280.589 98.5156 280.154 98.5156C279.519 98.5156 278.995 98.3529 278.584 98.0277C278.178 97.6966 277.96 97.2235 277.931 96.6085H278.901C278.925 96.9219 279.045 97.1792 279.263 97.3802C279.481 97.5753 279.775 97.6729 280.145 97.6729C280.504 97.6729 280.781 97.5753 280.975 97.3802C281.169 97.1792 281.266 96.9219 281.266 96.6085C281.266 96.1946 281.134 95.9019 280.869 95.7304C280.61 95.553 280.21 95.4643 279.669 95.4643H279.439V94.6305H279.678C280.154 94.6246 280.516 94.5448 280.763 94.3911C281.016 94.2373 281.142 93.9949 281.142 93.6637C281.142 93.3799 281.051 93.1552 280.869 92.9896C280.687 92.8181 280.428 92.7324 280.092 92.7324C279.763 92.7324 279.507 92.8181 279.325 92.9896C279.142 93.1552 279.034 93.3621 278.998 93.6105H278.019ZM287.423 92.8832H284.467V94.6483C284.59 94.4827 284.773 94.3437 285.014 94.2314C285.261 94.119 285.523 94.0629 285.799 94.0629C286.293 94.0629 286.693 94.1693 286.999 94.3822C287.311 94.5951 287.531 94.8641 287.661 95.1893C287.796 95.5146 287.864 95.8575 287.864 96.2183C287.864 96.6558 287.779 97.0461 287.608 97.3891C287.443 97.7261 287.193 97.9922 286.858 98.1874C286.529 98.3825 286.123 98.4801 285.64 98.4801C284.999 98.4801 284.484 98.3204 284.096 98.0011C283.708 97.6818 283.476 97.259 283.399 96.7327H284.379C284.443 97.0106 284.587 97.2324 284.811 97.3979C285.034 97.5576 285.314 97.6374 285.649 97.6374C286.067 97.6374 286.379 97.5103 286.584 97.256C286.796 97.0018 286.902 96.6647 286.902 96.2449C286.902 95.8191 286.796 95.4939 286.584 95.2692C286.373 95.0386 286.061 94.9232 285.649 94.9232C285.361 94.9232 285.117 94.9972 284.917 95.145C284.723 95.2869 284.581 95.4821 284.493 95.7304H283.54V91.9962H287.423V92.8832ZM288.752 93.575C288.752 93.1434 288.876 92.8063 289.123 92.5639C289.376 92.3155 289.699 92.1913 290.093 92.1913C290.487 92.1913 290.808 92.3155 291.055 92.5639C291.308 92.8063 291.435 93.1434 291.435 93.575C291.435 94.0067 291.308 94.3467 291.055 94.5951C290.808 94.8434 290.487 94.9676 290.093 94.9676C289.699 94.9676 289.376 94.8434 289.123 94.5951C288.876 94.3467 288.752 94.0067 288.752 93.575ZM294.135 92.3066L290.614 98.4801H289.626L293.146 92.3066H294.135ZM290.093 92.8033C289.723 92.8033 289.537 93.0606 289.537 93.575C289.537 94.0954 289.723 94.3556 290.093 94.3556C290.27 94.3556 290.405 94.2935 290.499 94.1693C290.599 94.0392 290.649 93.8411 290.649 93.575C290.649 93.0606 290.464 92.8033 290.093 92.8033ZM292.343 97.2028C292.343 96.7711 292.467 96.4341 292.714 96.1916C292.967 95.9433 293.29 95.8191 293.685 95.8191C294.073 95.8191 294.39 95.9433 294.638 96.1916C294.89 96.4341 295.017 96.7711 295.017 97.2028C295.017 97.6345 294.89 97.9745 294.638 98.2228C294.39 98.4712 294.073 98.5954 293.685 98.5954C293.29 98.5954 292.967 98.4712 292.714 98.2228C292.467 97.9745 292.343 97.6345 292.343 97.2028ZM293.676 96.4311C293.305 96.4311 293.12 96.6884 293.12 97.2028C293.12 97.7173 293.305 97.9745 293.676 97.9745C294.046 97.9745 294.232 97.7173 294.232 97.2028C294.232 96.6884 294.046 96.4311 293.676 96.4311Z" fill="white"/>
<path d="M147.047 222.284L118.105 251.377H78.4763" stroke="#87FFE9" stroke-width="0.982978"/>
<path d="M41.7444 242.379H38.7885V244.144C38.912 243.978 39.0944 243.839 39.3356 243.727C39.5826 243.614 39.8444 243.558 40.1209 243.558C40.615 243.558 41.015 243.665 41.3209 243.878C41.6326 244.09 41.8532 244.359 41.9826 244.685C42.1179 245.01 42.1856 245.353 42.1856 245.714C42.1856 246.151 42.1003 246.541 41.9297 246.884C41.765 247.221 41.515 247.488 41.1797 247.683C40.8503 247.878 40.4444 247.975 39.962 247.975C39.3208 247.975 38.8061 247.816 38.4179 247.496C38.0296 247.177 37.7973 246.754 37.7208 246.228H38.7002C38.765 246.506 38.9091 246.728 39.1326 246.893C39.3561 247.053 39.6356 247.133 39.9709 247.133C40.3885 247.133 40.7003 247.006 40.9062 246.751C41.1179 246.497 41.2238 246.16 41.2238 245.74C41.2238 245.314 41.1179 244.989 40.9062 244.765C40.6944 244.534 40.3826 244.419 39.9709 244.419C39.6826 244.419 39.4385 244.493 39.2385 244.64C39.0444 244.782 38.9032 244.977 38.815 245.226H37.862V241.492H41.7444V242.379ZM47.3798 242.379H44.4239V244.144C44.5474 243.978 44.7298 243.839 44.971 243.727C45.218 243.614 45.4798 243.558 45.7563 243.558C46.2504 243.558 46.6504 243.665 46.9563 243.878C47.2681 244.09 47.4887 244.359 47.6181 244.685C47.7534 245.01 47.821 245.353 47.821 245.714C47.821 246.151 47.7357 246.541 47.5651 246.884C47.4004 247.221 47.1504 247.488 46.8151 247.683C46.4857 247.878 46.0798 247.975 45.5975 247.975C44.9563 247.975 44.4416 247.816 44.0533 247.496C43.6651 247.177 43.4327 246.754 43.3562 246.228H44.3357C44.4004 246.506 44.5445 246.728 44.768 246.893C44.9916 247.053 45.271 247.133 45.6063 247.133C46.0239 247.133 46.3357 247.006 46.5416 246.751C46.7534 246.497 46.8592 246.16 46.8592 245.74C46.8592 245.314 46.7534 244.989 46.5416 244.765C46.3298 244.534 46.018 244.419 45.6063 244.419C45.318 244.419 45.0739 244.493 44.8739 244.64C44.6798 244.782 44.5386 244.977 44.4504 245.226H43.4974V241.492H47.3798V242.379ZM48.7093 243.07C48.7093 242.639 48.8328 242.302 49.0799 242.059C49.3328 241.811 49.6564 241.687 50.0505 241.687C50.4446 241.687 50.7652 241.811 51.0123 242.059C51.2652 242.302 51.3917 242.639 51.3917 243.07C51.3917 243.502 51.2652 243.842 51.0123 244.09C50.7652 244.339 50.4446 244.463 50.0505 244.463C49.6564 244.463 49.3328 244.339 49.0799 244.09C48.8328 243.842 48.7093 243.502 48.7093 243.07ZM54.0917 241.802L50.5711 247.975H49.5828L53.1035 241.802H54.0917ZM50.0505 242.299C49.6799 242.299 49.4946 242.556 49.4946 243.07C49.4946 243.591 49.6799 243.851 50.0505 243.851C50.227 243.851 50.3623 243.789 50.4564 243.665C50.5564 243.535 50.6064 243.336 50.6064 243.07C50.6064 242.556 50.4211 242.299 50.0505 242.299ZM52.3005 246.698C52.3005 246.267 52.4241 245.929 52.6711 245.687C52.9241 245.439 53.2476 245.314 53.6417 245.314C54.03 245.314 54.3476 245.439 54.5947 245.687C54.8476 245.929 54.9741 246.267 54.9741 246.698C54.9741 247.13 54.8476 247.47 54.5947 247.718C54.3476 247.967 54.03 248.091 53.6417 248.091C53.2476 248.091 52.9241 247.967 52.6711 247.718C52.4241 247.47 52.3005 247.13 52.3005 246.698ZM53.6329 245.926C53.2623 245.926 53.077 246.184 53.077 246.698C53.077 247.213 53.2623 247.47 53.6329 247.47C54.0035 247.47 54.1888 247.213 54.1888 246.698C54.1888 246.184 54.0035 245.926 53.6329 245.926Z" fill="white"/>
<path d="M253.463 237.95H293.536" stroke="#0B6050" stroke-width="0.982978"/>
<path d="M310.409 227.662V226.74H312.244V233.206H311.23V227.662H310.409ZM313.626 229.888C313.626 228.865 313.797 228.067 314.138 227.494C314.485 226.914 315.079 226.624 315.92 226.624C316.762 226.624 317.353 226.914 317.694 227.494C318.041 228.067 318.215 228.865 318.215 229.888C318.215 230.923 318.041 231.733 317.694 232.319C317.353 232.898 316.762 233.188 315.92 233.188C315.079 233.188 314.485 232.898 314.138 232.319C313.797 231.733 313.626 230.923 313.626 229.888ZM317.226 229.888C317.226 229.409 317.194 229.004 317.129 228.673C317.07 228.342 316.947 228.073 316.759 227.866C316.57 227.653 316.291 227.547 315.92 227.547C315.55 227.547 315.27 227.653 315.082 227.866C314.894 228.073 314.767 228.342 314.703 228.673C314.644 229.004 314.614 229.409 314.614 229.888C314.614 230.385 314.644 230.802 314.703 231.139C314.762 231.476 314.885 231.748 315.073 231.955C315.267 232.162 315.55 232.266 315.92 232.266C316.291 232.266 316.57 232.162 316.759 231.955C316.953 231.748 317.079 231.476 317.138 231.139C317.197 230.802 317.226 230.385 317.226 229.888ZM319.12 228.301C319.12 227.869 319.244 227.532 319.491 227.29C319.744 227.041 320.067 226.917 320.461 226.917C320.855 226.917 321.176 227.041 321.423 227.29C321.676 227.532 321.802 227.869 321.802 228.301C321.802 228.732 321.676 229.072 321.423 229.321C321.176 229.569 320.855 229.693 320.461 229.693C320.067 229.693 319.744 229.569 319.491 229.321C319.244 229.072 319.12 228.732 319.12 228.301ZM324.502 227.032L320.982 233.206H319.994L323.514 227.032H324.502ZM320.461 227.529C320.091 227.529 319.905 227.786 319.905 228.301C319.905 228.821 320.091 229.081 320.461 229.081C320.638 229.081 320.773 229.019 320.867 228.895C320.967 228.765 321.017 228.567 321.017 228.301C321.017 227.786 320.832 227.529 320.461 227.529ZM322.711 231.928C322.711 231.497 322.835 231.16 323.082 230.917C323.335 230.669 323.658 230.545 324.052 230.545C324.441 230.545 324.758 230.669 325.005 230.917C325.258 231.16 325.385 231.497 325.385 231.928C325.385 232.36 325.258 232.7 325.005 232.948C324.758 233.197 324.441 233.321 324.052 233.321C323.658 233.321 323.335 233.197 323.082 232.948C322.835 232.7 322.711 232.36 322.711 231.928ZM324.044 231.157C323.673 231.157 323.488 231.414 323.488 231.928C323.488 232.443 323.673 232.7 324.044 232.7C324.414 232.7 324.6 232.443 324.6 231.928C324.6 231.414 324.414 231.157 324.044 231.157Z" fill="white"/>
<g filter="url(#filter1_d_6_1574)">
<rect x="26.8625" y="46.2261" width="322.203" height="24.5745" rx="6.88085" fill="#20262D"/>
</g>
<path d="M43.1804 55.8163V56.4562H41.9074V60.5984H41.123V56.4562H39.8432V55.8163H43.1804ZM47.4084 56.8071V60.5984H46.6239V60.1512C46.5001 60.3072 46.3372 60.431 46.1354 60.5228C45.9381 60.6099 45.7271 60.6535 45.5024 60.6535C45.2042 60.6535 44.9358 60.5916 44.6973 60.4677C44.4633 60.3439 44.2776 60.1604 44.1399 59.9172C44.0069 59.6741 43.9404 59.3805 43.9404 59.0365V56.8071H44.7179V58.9195C44.7179 59.259 44.8028 59.5205 44.9725 59.7039C45.1423 59.8828 45.3739 59.9723 45.6675 59.9723C45.9611 59.9723 46.1927 59.8828 46.3625 59.7039C46.5368 59.5205 46.6239 59.259 46.6239 58.9195V56.8071H47.4084ZM51.9182 58.6099C51.9182 58.7521 51.909 58.8805 51.8906 58.9952H48.9938C49.0167 59.298 49.1291 59.5411 49.331 59.7246C49.5328 59.9081 49.7805 59.9998 50.0741 59.9998C50.4961 59.9998 50.7943 59.8232 50.9686 59.47H51.8149C51.7003 59.8186 51.4915 60.1053 51.1888 60.3301C50.8906 60.5503 50.519 60.6604 50.0741 60.6604C49.7117 60.6604 49.386 60.5801 49.097 60.4195C48.8126 60.2544 48.5878 60.025 48.4227 59.7315C48.2621 59.4333 48.1819 59.0893 48.1819 58.6993C48.1819 58.3094 48.2598 57.9677 48.4158 57.6741C48.5764 57.3759 48.7988 57.1466 49.0832 56.986C49.3722 56.8255 49.7025 56.7452 50.0741 56.7452C50.4319 56.7452 50.7507 56.8232 51.0305 56.9791C51.3103 57.1351 51.5282 57.3553 51.6842 57.6397C51.8402 57.9195 51.9182 58.2429 51.9182 58.6099ZM51.0993 58.3622C51.0947 58.0732 50.9915 57.8415 50.7897 57.6672C50.5879 57.4929 50.3379 57.4057 50.0397 57.4057C49.769 57.4057 49.5374 57.4929 49.3447 57.6672C49.1521 57.8369 49.0374 58.0686 49.0007 58.3622H51.0993ZM54.0663 60.6604C53.7681 60.6604 53.4997 60.6076 53.2612 60.5021C53.0273 60.392 52.8415 60.2452 52.7039 60.0617C52.5662 59.8737 52.4928 59.6649 52.4837 59.4356H53.2956C53.3094 59.5961 53.3851 59.7315 53.5227 59.8416C53.6649 59.9471 53.8415 59.9998 54.0525 59.9998C54.2727 59.9998 54.4424 59.9585 54.5617 59.876C54.6855 59.7888 54.7475 59.6787 54.7475 59.5457C54.7475 59.4035 54.6787 59.298 54.541 59.2292C54.408 59.1604 54.1947 59.0847 53.9011 59.0021C53.6167 58.9241 53.3851 58.8484 53.2062 58.775C53.0273 58.7016 52.8713 58.5892 52.7383 58.4379C52.6098 58.2865 52.5456 58.0869 52.5456 57.8392C52.5456 57.6374 52.6052 57.4539 52.7245 57.2888C52.8438 57.119 53.0135 56.986 53.2337 56.8897C53.4585 56.7933 53.7153 56.7452 54.0043 56.7452C54.4355 56.7452 54.7819 56.8553 55.0433 57.0755C55.3094 57.2911 55.4516 57.5869 55.47 57.9631H54.6855C54.6718 57.7934 54.603 57.658 54.4791 57.5571C54.3553 57.4562 54.1878 57.4057 53.9768 57.4057C53.7704 57.4057 53.6121 57.4447 53.502 57.5227C53.3919 57.6007 53.3369 57.7039 53.3369 57.8323C53.3369 57.9333 53.3736 58.0181 53.447 58.0869C53.5204 58.1557 53.6098 58.2108 53.7153 58.2521C53.8209 58.2888 53.9768 58.3369 54.1832 58.3966C54.4585 58.47 54.6833 58.5457 54.8576 58.6236C55.0365 58.697 55.1901 58.8071 55.3186 58.9539C55.447 59.1007 55.5135 59.2957 55.5181 59.5388C55.5181 59.7544 55.4585 59.9471 55.3392 60.1168C55.22 60.2865 55.0502 60.4195 54.83 60.5159C54.6144 60.6122 54.3599 60.6604 54.0663 60.6604ZM56.1042 58.6856C56.1042 58.3048 56.1822 57.9677 56.3382 57.6741C56.4987 57.3805 56.7143 57.1534 56.985 56.9929C57.2602 56.8277 57.5653 56.7452 57.9001 56.7452C58.1478 56.7452 58.391 56.8002 58.6295 56.9103C58.8726 57.0158 59.0653 57.158 59.2075 57.3369V55.5066H59.9988V60.5984H59.2075V60.0273C59.0791 60.2108 58.9002 60.3622 58.6708 60.4815C58.446 60.6007 58.1868 60.6604 57.8933 60.6604C57.563 60.6604 57.2602 60.5778 56.985 60.4127C56.7143 60.2429 56.4987 60.009 56.3382 59.7108C56.1822 59.4081 56.1042 59.0663 56.1042 58.6856ZM59.2075 58.6993C59.2075 58.4379 59.1525 58.2108 59.0424 58.0181C58.9369 57.8255 58.7969 57.6787 58.6226 57.5778C58.4483 57.4768 58.2602 57.4264 58.0584 57.4264C57.8566 57.4264 57.6685 57.4768 57.4942 57.5778C57.3199 57.6741 57.1776 57.8186 57.0676 58.0113C56.962 58.1993 56.9093 58.4241 56.9093 58.6856C56.9093 58.947 56.962 59.1764 57.0676 59.3737C57.1776 59.5709 57.3199 59.7223 57.4942 59.8278C57.6731 59.9287 57.8611 59.9792 58.0584 59.9792C58.2602 59.9792 58.4483 59.9287 58.6226 59.8278C58.7969 59.7269 58.9369 59.5801 59.0424 59.3874C59.1525 59.1902 59.2075 58.9608 59.2075 58.6993ZM60.7676 58.6856C60.7676 58.3048 60.8456 57.9677 61.0016 57.6741C61.1621 57.3805 61.3777 57.1534 61.6484 56.9929C61.9236 56.8277 62.2264 56.7452 62.5566 56.7452C62.8548 56.7452 63.114 56.8048 63.3342 56.9241C63.559 57.0388 63.7379 57.1833 63.8709 57.3576V56.8071H64.6622V60.5984H63.8709V60.0342C63.7379 60.2131 63.5567 60.3622 63.3273 60.4815C63.0979 60.6007 62.8365 60.6604 62.5429 60.6604C62.2172 60.6604 61.919 60.5778 61.6484 60.4127C61.3777 60.2429 61.1621 60.009 61.0016 59.7108C60.8456 59.4081 60.7676 59.0663 60.7676 58.6856ZM63.8709 58.6993C63.8709 58.4379 63.8158 58.2108 63.7057 58.0181C63.6002 57.8255 63.4603 57.6787 63.286 57.5778C63.1117 57.4768 62.9236 57.4264 62.7218 57.4264C62.5199 57.4264 62.3319 57.4768 62.1576 57.5778C61.9832 57.6741 61.841 57.8186 61.7309 58.0113C61.6254 58.1993 61.5727 58.4241 61.5727 58.6856C61.5727 58.947 61.6254 59.1764 61.7309 59.3737C61.841 59.5709 61.9832 59.7223 62.1576 59.8278C62.3365 59.9287 62.5245 59.9792 62.7218 59.9792C62.9236 59.9792 63.1117 59.9287 63.286 59.8278C63.4603 59.7269 63.6002 59.5801 63.7057 59.3874C63.8158 59.1902 63.8709 58.9608 63.8709 58.6993ZM69.1054 56.8071L66.7797 62.3806H65.9677L66.7384 60.5365L65.2452 56.8071H66.1191L67.1856 59.6971L68.2934 56.8071H69.1054Z" fill="white"/>
<path d="M302.768 59.5319C303.209 59.1512 303.555 58.8392 303.807 58.5961C304.064 58.3484 304.277 58.0915 304.447 57.8255C304.617 57.5594 304.702 57.2933 304.702 57.0273C304.702 56.7521 304.635 56.5365 304.502 56.3805C304.374 56.2245 304.17 56.1465 303.89 56.1465C303.619 56.1465 303.408 56.2337 303.257 56.408C303.11 56.5777 303.032 56.8071 303.023 57.0961H302.266C302.28 56.5732 302.436 56.1741 302.734 55.8988C303.037 55.619 303.42 55.4791 303.883 55.4791C304.383 55.4791 304.773 55.6167 305.053 55.892C305.337 56.1672 305.479 56.5342 305.479 56.9929C305.479 57.3232 305.394 57.642 305.225 57.9493C305.059 58.2521 304.86 58.525 304.626 58.7681C304.397 59.0067 304.103 59.2842 303.745 59.6007L303.436 59.876H305.617V60.5296H302.273V59.9585L302.768 59.5319ZM306.203 56.2979V55.5823H307.634V60.5984H306.843V56.2979H306.203ZM311.946 56.2566H309.64V57.6259C309.737 57.4975 309.879 57.3897 310.067 57.3025C310.26 57.2154 310.464 57.1718 310.679 57.1718C311.065 57.1718 311.377 57.2544 311.615 57.4195C311.858 57.5846 312.03 57.7934 312.131 58.0457C312.237 58.298 312.29 58.564 312.29 58.8438C312.29 59.1833 312.223 59.486 312.09 59.7521C311.962 60.0136 311.767 60.22 311.505 60.3714C311.248 60.5228 310.932 60.5984 310.556 60.5984C310.056 60.5984 309.654 60.4746 309.351 60.2269C309.049 59.9792 308.868 59.6512 308.808 59.2429H309.572C309.622 59.4585 309.734 59.6305 309.909 59.759C310.083 59.8828 310.301 59.9448 310.562 59.9448C310.888 59.9448 311.131 59.8461 311.292 59.6489C311.457 59.4516 311.54 59.1902 311.54 58.8645C311.54 58.5342 311.457 58.2819 311.292 58.1076C311.127 57.9287 310.884 57.8392 310.562 57.8392C310.338 57.8392 310.147 57.8966 309.991 58.0113C309.84 58.1213 309.73 58.2727 309.661 58.4654H308.918V55.5686H311.946V56.2566ZM314.069 59.6558L313.237 61.5549H312.728L313.216 59.6558H314.069ZM317.886 56.2566H315.581V57.6259C315.677 57.4975 315.819 57.3897 316.007 57.3025C316.2 57.2154 316.404 57.1718 316.62 57.1718C317.005 57.1718 317.317 57.2544 317.555 57.4195C317.798 57.5846 317.971 57.7934 318.071 58.0457C318.177 58.298 318.23 58.564 318.23 58.8438C318.23 59.1833 318.163 59.486 318.03 59.7521C317.902 60.0136 317.707 60.22 317.445 60.3714C317.188 60.5228 316.872 60.5984 316.496 60.5984C315.996 60.5984 315.594 60.4746 315.292 60.2269C314.989 59.9792 314.808 59.6512 314.748 59.2429H315.512C315.562 59.4585 315.675 59.6305 315.849 59.759C316.023 59.8828 316.241 59.9448 316.503 59.9448C316.828 59.9448 317.071 59.8461 317.232 59.6489C317.397 59.4516 317.48 59.1902 317.48 58.8645C317.48 58.5342 317.397 58.2819 317.232 58.1076C317.067 57.9287 316.824 57.8392 316.503 57.8392C316.278 57.8392 316.087 57.8966 315.931 58.0113C315.78 58.1213 315.67 58.2727 315.601 58.4654H314.858V55.5686H317.886V56.2566ZM319.48 59.5319C319.92 59.1512 320.266 58.8392 320.519 58.5961C320.776 58.3484 320.989 58.0915 321.159 57.8255C321.328 57.5594 321.413 57.2933 321.413 57.0273C321.413 56.7521 321.347 56.5365 321.214 56.3805C321.085 56.2245 320.881 56.1465 320.601 56.1465C320.331 56.1465 320.12 56.2337 319.968 56.408C319.821 56.5777 319.744 56.8071 319.734 57.0961H318.977C318.991 56.5732 319.147 56.1741 319.445 55.8988C319.748 55.619 320.131 55.4791 320.594 55.4791C321.094 55.4791 321.484 55.6167 321.764 55.892C322.049 56.1672 322.191 56.5342 322.191 56.9929C322.191 57.3232 322.106 57.642 321.936 57.9493C321.771 58.2521 321.572 58.525 321.338 58.7681C321.108 59.0067 320.815 59.2842 320.457 59.6007L320.147 59.876H322.328V60.5296H318.984V59.9585L319.48 59.5319ZM323.004 56.8209C323.031 56.3943 323.194 56.0617 323.492 55.8231C323.795 55.5846 324.18 55.4653 324.648 55.4653C324.969 55.4653 325.247 55.5227 325.481 55.6374C325.715 55.752 325.891 55.908 326.011 56.1053C326.13 56.3025 326.19 56.525 326.19 56.7727C326.19 57.0571 326.114 57.3002 325.963 57.5021C325.811 57.7039 325.63 57.8392 325.419 57.908V57.9356C325.69 58.0181 325.901 58.1695 326.052 58.3897C326.203 58.6053 326.279 58.8828 326.279 59.2223C326.279 59.4929 326.217 59.7338 326.093 59.9448C325.969 60.1558 325.786 60.3232 325.543 60.4471C325.3 60.5663 325.008 60.626 324.669 60.626C324.173 60.626 323.765 60.4998 323.444 60.2475C323.128 59.9906 322.958 59.6237 322.935 59.1466H323.692C323.71 59.3897 323.804 59.5893 323.974 59.7452C324.144 59.8966 324.373 59.9723 324.662 59.9723C324.942 59.9723 325.157 59.8966 325.309 59.7452C325.46 59.5893 325.536 59.3897 325.536 59.1466C325.536 58.8255 325.433 58.5984 325.226 58.4654C325.024 58.3278 324.712 58.259 324.29 58.259H324.112V57.6122H324.297C324.669 57.6076 324.951 57.5456 325.144 57.4264C325.341 57.3071 325.44 57.119 325.44 56.8621C325.44 56.642 325.368 56.4676 325.226 56.3392C325.084 56.2062 324.882 56.1397 324.621 56.1397C324.364 56.1397 324.164 56.2062 324.022 56.3392C323.88 56.4676 323.795 56.6282 323.768 56.8209H323.004ZM329.778 57.3645C329.911 57.1901 330.092 57.0433 330.322 56.9241C330.551 56.8048 330.81 56.7452 331.099 56.7452C331.429 56.7452 331.73 56.8277 332.001 56.9929C332.276 57.1534 332.491 57.3805 332.647 57.6741C332.803 57.9677 332.881 58.3048 332.881 58.6856C332.881 59.0663 332.803 59.4081 332.647 59.7108C332.491 60.009 332.276 60.2429 332.001 60.4127C331.73 60.5778 331.429 60.6604 331.099 60.6604C330.81 60.6604 330.553 60.603 330.329 60.4884C330.104 60.3691 329.92 60.2223 329.778 60.048V62.4012H328.994V56.8071H329.778V57.3645ZM332.083 58.6856C332.083 58.4241 332.028 58.1993 331.918 58.0113C331.812 57.8186 331.67 57.6741 331.491 57.5778C331.317 57.4768 331.129 57.4264 330.927 57.4264C330.73 57.4264 330.542 57.4768 330.363 57.5778C330.189 57.6787 330.046 57.8255 329.936 58.0181C329.831 58.2108 329.778 58.4379 329.778 58.6993C329.778 58.9608 329.831 59.1902 329.936 59.3874C330.046 59.5801 330.189 59.7269 330.363 59.8278C330.542 59.9287 330.73 59.9792 330.927 59.9792C331.129 59.9792 331.317 59.9287 331.491 59.8278C331.67 59.7223 331.812 59.5709 331.918 59.3737C332.028 59.1764 332.083 58.947 332.083 58.6856ZM333.396 58.6993C333.396 58.3094 333.474 57.9677 333.63 57.6741C333.79 57.3759 334.01 57.1466 334.29 56.986C334.57 56.8255 334.891 56.7452 335.253 56.7452C335.712 56.7452 336.091 56.8553 336.389 57.0755C336.691 57.2911 336.896 57.6007 337.001 58.0044H336.155C336.086 57.8163 335.976 57.6695 335.824 57.564C335.673 57.4585 335.483 57.4057 335.253 57.4057C334.932 57.4057 334.675 57.5204 334.483 57.7498C334.295 57.9746 334.201 58.2911 334.201 58.6993C334.201 59.1076 334.295 59.4264 334.483 59.6558C334.675 59.8851 334.932 59.9998 335.253 59.9998C335.708 59.9998 336.008 59.8003 336.155 59.4012H337.001C336.891 59.7865 336.685 60.0939 336.382 60.3232C336.079 60.548 335.703 60.6604 335.253 60.6604C334.891 60.6604 334.57 60.5801 334.29 60.4195C334.01 60.2544 333.79 60.025 333.63 59.7315C333.474 59.4333 333.396 59.0893 333.396 58.6993ZM339.159 60.6604C338.861 60.6604 338.592 60.6076 338.354 60.5021C338.12 60.392 337.934 60.2452 337.797 60.0617C337.659 59.8737 337.586 59.6649 337.576 59.4356H338.388C338.402 59.5961 338.478 59.7315 338.615 59.8416C338.758 59.9471 338.934 59.9998 339.145 59.9998C339.365 59.9998 339.535 59.9585 339.654 59.876C339.778 59.7888 339.84 59.6787 339.84 59.5457C339.84 59.4035 339.771 59.298 339.634 59.2292C339.501 59.1604 339.287 59.0847 338.994 59.0021C338.709 58.9241 338.478 58.8484 338.299 58.775C338.12 58.7016 337.964 58.5892 337.831 58.4379C337.703 58.2865 337.638 58.0869 337.638 57.8392C337.638 57.6374 337.698 57.4539 337.817 57.2888C337.937 57.119 338.106 56.986 338.326 56.8897C338.551 56.7933 338.808 56.7452 339.097 56.7452C339.528 56.7452 339.875 56.8553 340.136 57.0755C340.402 57.2911 340.544 57.5869 340.563 57.9631H339.778C339.765 57.7934 339.696 57.658 339.572 57.5571C339.448 57.4562 339.281 57.4057 339.07 57.4057C338.863 57.4057 338.705 57.4447 338.595 57.5227C338.485 57.6007 338.43 57.7039 338.43 57.8323C338.43 57.9333 338.466 58.0181 338.54 58.0869C338.613 58.1557 338.703 58.2108 338.808 58.2521C338.914 58.2888 339.07 58.3369 339.276 58.3966C339.551 58.47 339.776 58.5457 339.95 58.6236C340.129 58.697 340.283 58.8071 340.411 58.9539C340.54 59.1007 340.606 59.2957 340.611 59.5388C340.611 59.7544 340.551 59.9471 340.432 60.1168C340.313 60.2865 340.143 60.4195 339.923 60.5159C339.707 60.6122 339.453 60.6604 339.159 60.6604Z" fill="white"/>
<path d="M34.0441 32.9249C34.706 33.0483 35.2669 33.3849 35.7269 33.9346C36.1869 34.4843 36.4169 35.1238 36.4169 35.8531C36.4169 36.4477 36.2654 36.9862 35.9625 37.4686C35.6708 37.9398 35.2389 38.3156 34.6667 38.5961C34.0945 38.8654 33.4102 39 32.6136 39H28.5411V27.2368H32.4958C33.685 27.2368 34.5882 27.5117 35.2052 28.0614C35.8335 28.6112 36.1476 29.3236 36.1476 30.1986C36.1476 30.9279 35.9513 31.5225 35.5586 31.9825C35.166 32.4312 34.6611 32.7454 34.0441 32.9249ZM29.7191 32.4369H32.4622C33.2587 32.4369 33.8702 32.2517 34.2965 31.8815C34.734 31.5001 34.9528 30.9784 34.9528 30.3164C34.9528 29.6657 34.734 29.1553 34.2965 28.785C33.8702 28.4148 33.2419 28.2297 32.4117 28.2297H29.7191V32.4369ZM32.5295 38.0071C33.3821 38.0071 34.0441 37.8052 34.5153 37.4013C34.9977 36.9974 35.2389 36.4421 35.2389 35.7353C35.2389 35.0285 34.9865 34.4675 34.4816 34.0524C33.988 33.6261 33.3204 33.4129 32.479 33.4129H29.7191V38.0071H32.5295ZM46.8957 33.9346C46.8957 34.3385 46.8845 34.647 46.8621 34.8602H39.2387C39.2724 35.5557 39.4406 36.1504 39.7436 36.644C40.0465 37.1376 40.4448 37.5135 40.9384 37.7715C41.432 38.0183 41.9705 38.1417 42.5539 38.1417C43.3168 38.1417 43.9563 37.9566 44.4724 37.5864C44.9997 37.2162 45.3475 36.7169 45.5158 36.0887H46.7611C46.5367 36.9862 46.0543 37.721 45.3138 38.2932C44.5846 38.8542 43.6646 39.1346 42.5539 39.1346C41.6901 39.1346 40.916 38.9439 40.2316 38.5625C39.5472 38.1698 39.0087 37.6201 38.616 36.9133C38.2346 36.1952 38.0439 35.3594 38.0439 34.4058C38.0439 33.4522 38.2346 32.6164 38.616 31.8983C38.9975 31.1803 39.5304 30.6306 40.2148 30.2491C40.8991 29.8677 41.6788 29.677 42.5539 29.677C43.429 29.677 44.1919 29.8677 44.8426 30.2491C45.5045 30.6306 46.0094 31.1467 46.3572 31.7974C46.7162 32.4369 46.8957 33.1493 46.8957 33.9346ZM45.7009 33.9009C45.7121 33.2166 45.5719 32.6332 45.2802 32.1508C44.9997 31.6683 44.6126 31.3037 44.119 31.0569C43.6254 30.8101 43.0868 30.6867 42.5034 30.6867C41.6284 30.6867 40.8823 30.9672 40.2652 31.5281C39.6482 32.0891 39.306 32.88 39.2387 33.9009H45.7009ZM52.2147 39.1346C51.1601 39.1346 50.2963 38.8934 49.6231 38.411C48.9612 37.9174 48.591 37.2498 48.5124 36.4084H49.7241C49.7802 36.9245 50.0214 37.3452 50.4477 37.6705C50.8853 37.9847 51.4687 38.1417 52.1979 38.1417C52.8374 38.1417 53.3366 37.9903 53.6956 37.6874C54.0659 37.3845 54.251 37.0086 54.251 36.5599C54.251 36.2457 54.15 35.9877 53.9481 35.7857C53.7461 35.5838 53.4881 35.4267 53.174 35.3145C52.871 35.1911 52.4559 35.0621 51.9286 34.9275C51.2443 34.748 50.6889 34.5685 50.2626 34.389C49.8363 34.2095 49.4717 33.9458 49.1688 33.598C48.8771 33.239 48.7312 32.7622 48.7312 32.1676C48.7312 31.7188 48.8658 31.3037 49.1351 30.9223C49.4044 30.5408 49.7858 30.2379 50.2794 30.0135C50.7731 29.7892 51.334 29.677 51.9623 29.677C52.9496 29.677 53.7461 29.9294 54.352 30.4342C54.9578 30.9279 55.2831 31.6122 55.328 32.4873H54.15C54.1164 31.9488 53.9032 31.5169 53.5105 31.1915C53.1291 30.855 52.6018 30.6867 51.9286 30.6867C51.334 30.6867 50.8516 30.8269 50.4814 31.1074C50.1112 31.3879 49.926 31.7357 49.926 32.1508C49.926 32.5098 50.0326 32.8071 50.2458 33.0427C50.4702 33.2671 50.745 33.4466 51.0704 33.5812C51.3957 33.7046 51.8333 33.8448 52.383 34.0019C53.0449 34.1814 53.5722 34.3553 53.9649 34.5236C54.3576 34.6919 54.6941 34.9387 54.9746 35.2641C55.2551 35.5894 55.4009 36.0213 55.4122 36.5599C55.4122 37.0535 55.2775 37.4966 55.0083 37.8893C54.739 38.2708 54.3632 38.5737 53.8808 38.7981C53.3983 39.0224 52.843 39.1346 52.2147 39.1346ZM59.161 30.8045V36.5094C59.161 37.0703 59.2676 37.4574 59.4807 37.6705C59.6939 37.8837 60.0697 37.9903 60.6082 37.9903H61.6853V39H60.4231C59.5929 39 58.9759 38.8093 58.572 38.4278C58.1681 38.0352 57.9662 37.3957 57.9662 36.5094V30.8045H56.6872V29.8116H57.9662V27.5061H59.161V29.8116H61.6853V30.8045H59.161ZM71.8137 39.1178C71.0396 39.1178 70.3552 38.9832 69.7606 38.7139C69.1772 38.4447 68.7173 38.0688 68.3807 37.5864C68.0441 37.104 67.8646 36.5655 67.8422 35.9709H69.0875C69.1436 36.543 69.396 37.0479 69.8448 37.4854C70.2935 37.9118 70.9499 38.1249 71.8137 38.1249C72.6103 38.1249 73.2385 37.923 73.6985 37.5191C74.1697 37.104 74.4053 36.5823 74.4053 35.954C74.4053 35.4492 74.2763 35.0453 74.0183 34.7424C73.7602 34.4282 73.4405 34.1982 73.059 34.0524C72.6776 33.8953 72.1503 33.727 71.4771 33.5475C70.6918 33.3344 70.0692 33.1268 69.6092 32.9249C69.1492 32.7229 68.7565 32.4088 68.4312 31.9825C68.1058 31.5562 67.9431 30.9784 67.9431 30.2491C67.9431 29.6433 68.1002 29.1048 68.4143 28.6336C68.7285 28.1512 69.1716 27.7753 69.7438 27.5061C70.316 27.2368 70.9723 27.1022 71.7127 27.1022C72.801 27.1022 73.6761 27.3714 74.338 27.91C75.0112 28.4373 75.3982 29.1216 75.4992 29.963H74.2202C74.1417 29.4806 73.878 29.0543 73.4293 28.6841C72.9805 28.3026 72.3747 28.1119 71.6118 28.1119C70.905 28.1119 70.316 28.3026 69.8448 28.6841C69.3736 29.0543 69.138 29.5648 69.138 30.2155C69.138 30.7091 69.267 31.1074 69.525 31.4103C69.7831 31.7132 70.1028 31.9432 70.4843 32.1003C70.8769 32.2573 71.4042 32.4256 72.0661 32.6051C72.829 32.8183 73.4461 33.0315 73.9173 33.2446C74.3885 33.4466 74.7868 33.7607 75.1121 34.187C75.4375 34.6133 75.6002 35.1855 75.6002 35.9035C75.6002 36.4533 75.4543 36.975 75.1626 37.4686C74.8709 37.9622 74.439 38.3605 73.8668 38.6634C73.2946 38.9663 72.6103 39.1178 71.8137 39.1178ZM86.1898 33.9346C86.1898 34.3385 86.1786 34.647 86.1561 34.8602H78.5328C78.5665 35.5557 78.7347 36.1504 79.0377 36.644C79.3406 37.1376 79.7388 37.5135 80.2325 37.7715C80.7261 38.0183 81.2646 38.1417 81.848 38.1417C82.6109 38.1417 83.2504 37.9566 83.7665 37.5864C84.2938 37.2162 84.6416 36.7169 84.8099 36.0887H86.0552C85.8308 36.9862 85.3484 37.721 84.6079 38.2932C83.8787 38.8542 82.9587 39.1346 81.848 39.1346C80.9842 39.1346 80.21 38.9439 79.5257 38.5625C78.8413 38.1698 78.3028 37.6201 77.9101 36.9133C77.5287 36.1952 77.338 35.3594 77.338 34.4058C77.338 33.4522 77.5287 32.6164 77.9101 31.8983C78.2916 31.1803 78.8245 30.6306 79.5089 30.2491C80.1932 29.8677 80.9729 29.677 81.848 29.677C82.7231 29.677 83.486 29.8677 84.1367 30.2491C84.7986 30.6306 85.3035 31.1467 85.6513 31.7974C86.0103 32.4369 86.1898 33.1493 86.1898 33.9346ZM84.995 33.9009C85.0062 33.2166 84.866 32.6332 84.5743 32.1508C84.2938 31.6683 83.9067 31.3037 83.4131 31.0569C82.9194 30.8101 82.3809 30.6867 81.7975 30.6867C80.9225 30.6867 80.1764 30.9672 79.5593 31.5281C78.9423 32.0891 78.6001 32.88 78.5328 33.9009H84.995ZM89.523 26.5468V39H88.345V26.5468H89.523ZM93.3686 26.5468V39H92.1906V26.5468H93.3686ZM96.6252 28.0782C96.3896 28.0782 96.1877 27.9941 96.0194 27.8258C95.8511 27.6575 95.767 27.45 95.767 27.2032C95.767 26.9563 95.8511 26.7544 96.0194 26.5973C96.1877 26.429 96.3896 26.3449 96.6252 26.3449C96.8608 26.3449 97.0628 26.429 97.2311 26.5973C97.3994 26.7544 97.4835 26.9563 97.4835 27.2032C97.4835 27.45 97.3994 27.6575 97.2311 27.8258C97.0628 27.9941 96.8608 28.0782 96.6252 28.0782ZM97.2142 29.8116V39H96.0362V29.8116H97.2142ZM104.19 29.6433C105.289 29.6433 106.187 29.9855 106.883 30.6698C107.578 31.343 107.926 32.3247 107.926 33.6149V39H106.765V33.7495C106.765 32.751 106.512 31.9881 106.007 31.4608C105.514 30.9335 104.835 30.6698 103.971 30.6698C103.085 30.6698 102.378 30.9503 101.851 31.5113C101.323 32.0722 101.06 32.8968 101.06 33.9851V39H99.8818V29.8116H101.06V31.3767C101.352 30.8157 101.772 30.3894 102.322 30.0977C102.872 29.7948 103.494 29.6433 104.19 29.6433ZM114.385 29.677C115.249 29.677 116 29.8789 116.64 30.2828C117.279 30.6867 117.739 31.1971 118.02 31.8142V29.8116H119.198V39.2356C119.198 40.077 119.013 40.8231 118.643 41.4738C118.284 42.1245 117.779 42.6238 117.128 42.9715C116.477 43.3306 115.737 43.5101 114.907 43.5101C113.729 43.5101 112.747 43.2296 111.962 42.6686C111.187 42.1077 110.705 41.3448 110.514 40.3799H111.676C111.877 41.0194 112.259 41.5299 112.82 41.9113C113.392 42.2928 114.088 42.4835 114.907 42.4835C115.501 42.4835 116.034 42.3545 116.505 42.0965C116.977 41.8496 117.347 41.4794 117.616 40.9858C117.885 40.4921 118.02 39.9087 118.02 39.2356V36.9637C117.728 37.592 117.263 38.1137 116.623 38.5288C115.995 38.9327 115.249 39.1346 114.385 39.1346C113.543 39.1346 112.786 38.9383 112.113 38.5456C111.451 38.153 110.929 37.5976 110.548 36.8796C110.178 36.1616 109.993 35.3314 109.993 34.389C109.993 33.4466 110.178 32.622 110.548 31.9152C110.929 31.1971 111.451 30.6474 112.113 30.266C112.786 29.8733 113.543 29.677 114.385 29.677ZM118.02 34.4058C118.02 33.6653 117.868 33.0146 117.566 32.4537C117.263 31.8927 116.847 31.4608 116.32 31.1579C115.804 30.855 115.232 30.7035 114.604 30.7035C113.953 30.7035 113.37 30.8494 112.854 31.141C112.337 31.4327 111.928 31.8591 111.625 32.42C111.333 32.9698 111.187 33.6261 111.187 34.389C111.187 35.1406 111.333 35.8026 111.625 36.3747C111.928 36.9357 112.337 37.3676 112.854 37.6705C113.37 37.9622 113.953 38.1081 114.604 38.1081C115.232 38.1081 115.804 37.9566 116.32 37.6537C116.847 37.3508 117.263 36.9189 117.566 36.3579C117.868 35.797 118.02 35.1463 118.02 34.4058Z" fill="white"/>
<path d="M309.207 27.4898V27.9262H308.086V31.6006H307.549V27.9262H306.423V27.4898H309.207ZM311.472 28.3096C311.715 28.3096 311.935 28.3627 312.132 28.4688C312.329 28.571 312.482 28.7264 312.592 28.9347C312.706 29.1431 312.763 29.3967 312.763 29.6956V31.6006H312.232V29.7722C312.232 29.4498 312.152 29.2041 311.991 29.035C311.829 28.862 311.609 28.7755 311.33 28.7755C311.047 28.7755 310.821 28.864 310.652 29.0409C310.487 29.2178 310.404 29.4754 310.404 29.8135V31.6006H309.867V27.2362H310.404V28.8286C310.51 28.6634 310.656 28.5357 310.84 28.4452C311.029 28.3548 311.24 28.3096 311.472 28.3096ZM313.917 27.8436C313.815 27.8436 313.728 27.8083 313.658 27.7375C313.587 27.6667 313.551 27.5802 313.551 27.478C313.551 27.3757 313.587 27.2892 313.658 27.2185C313.728 27.1477 313.815 27.1123 313.917 27.1123C314.015 27.1123 314.098 27.1477 314.165 27.2185C314.236 27.2892 314.271 27.3757 314.271 27.478C314.271 27.5802 314.236 27.6667 314.165 27.7375C314.098 27.8083 314.015 27.8436 313.917 27.8436ZM314.177 28.3686V31.6006H313.64V28.3686H314.177ZM316.235 31.6537C315.988 31.6537 315.766 31.6124 315.569 31.5298C315.372 31.4433 315.217 31.3254 315.103 31.1759C314.989 31.0226 314.926 30.8476 314.914 30.651H315.469C315.484 30.8122 315.559 30.944 315.693 31.0462C315.831 31.1484 316.009 31.1995 316.23 31.1995C316.434 31.1995 316.595 31.1543 316.713 31.0639C316.831 30.9734 316.89 30.8594 316.89 30.7218C316.89 30.5803 316.827 30.4761 316.701 30.4092C316.576 30.3384 316.381 30.2696 316.118 30.2028C315.878 30.1399 315.681 30.077 315.528 30.0141C315.378 29.9472 315.249 29.8509 315.138 29.7251C315.032 29.5953 314.979 29.4262 314.979 29.2178C314.979 29.0527 315.028 28.9013 315.127 28.7637C315.225 28.6261 315.365 28.518 315.545 28.4393C315.726 28.3568 315.933 28.3155 316.165 28.3155C316.523 28.3155 316.812 28.4059 317.032 28.5868C317.252 28.7676 317.37 29.0154 317.386 29.3299H316.849C316.837 29.1608 316.768 29.0252 316.642 28.923C316.521 28.8207 316.355 28.7696 316.147 28.7696C315.954 28.7696 315.801 28.8109 315.687 28.8935C315.573 28.976 315.516 29.0842 315.516 29.2178C315.516 29.324 315.549 29.4125 315.616 29.4833C315.687 29.5501 315.773 29.6051 315.876 29.6484C315.982 29.6877 316.127 29.7329 316.312 29.784C316.544 29.847 316.733 29.9099 316.878 29.9728C317.024 30.0318 317.148 30.1222 317.25 30.2441C317.356 30.366 317.411 30.5252 317.415 30.7218C317.415 30.8987 317.366 31.058 317.268 31.1995C317.169 31.3411 317.03 31.4531 316.849 31.5357C316.672 31.6143 316.467 31.6537 316.235 31.6537ZM324.912 27.4898L323.72 31.6006H323.119L322.163 28.2919L321.172 31.6006L320.577 31.6065L319.427 27.4898H319.999L320.895 30.9754L321.886 27.4898H322.488L323.431 30.9636L324.334 27.4898H324.912ZM328.448 29.8607C328.448 29.9629 328.442 30.0711 328.43 30.1851H325.847C325.867 30.5036 325.975 30.7533 326.171 30.9341C326.372 31.1111 326.614 31.1995 326.897 31.1995C327.129 31.1995 327.321 31.1464 327.475 31.0403C327.632 30.9302 327.742 30.7847 327.805 30.6038H328.383C328.297 30.9145 328.124 31.1681 327.864 31.3647C327.605 31.5573 327.282 31.6537 326.897 31.6537C326.59 31.6537 326.315 31.5849 326.071 31.4472C325.831 31.3096 325.642 31.115 325.505 30.8634C325.367 30.6078 325.298 30.3129 325.298 29.9787C325.298 29.6445 325.365 29.3515 325.499 29.0999C325.633 28.8482 325.819 28.6556 326.059 28.5219C326.303 28.3843 326.582 28.3155 326.897 28.3155C327.203 28.3155 327.475 28.3823 327.711 28.516C327.947 28.6497 328.127 28.8345 328.253 29.0704C328.383 29.3024 328.448 29.5658 328.448 29.8607ZM327.894 29.7487C327.894 29.5442 327.848 29.3692 327.758 29.2237C327.667 29.0743 327.544 28.9623 327.386 28.8876C327.233 28.8089 327.062 28.7696 326.873 28.7696C326.602 28.7696 326.37 28.8561 326.177 29.0291C325.988 29.2021 325.88 29.442 325.853 29.7487H327.894ZM332.105 29.8607C332.105 29.9629 332.099 30.0711 332.088 30.1851H329.504C329.524 30.5036 329.632 30.7533 329.829 30.9341C330.029 31.1111 330.271 31.1995 330.554 31.1995C330.786 31.1995 330.979 31.1464 331.132 31.0403C331.289 30.9302 331.399 30.7847 331.462 30.6038H332.04C331.954 30.9145 331.781 31.1681 331.521 31.3647C331.262 31.5573 330.939 31.6537 330.554 31.6537C330.247 31.6537 329.972 31.5849 329.728 31.4472C329.489 31.3096 329.3 31.115 329.162 30.8634C329.025 30.6078 328.956 30.3129 328.956 29.9787C328.956 29.6445 329.023 29.3515 329.156 29.0999C329.29 28.8482 329.477 28.6556 329.717 28.5219C329.96 28.3843 330.24 28.3155 330.554 28.3155C330.861 28.3155 331.132 28.3823 331.368 28.516C331.604 28.6497 331.785 28.8345 331.911 29.0704C332.04 29.3024 332.105 29.5658 332.105 29.8607ZM331.551 29.7487C331.551 29.5442 331.506 29.3692 331.415 29.2237C331.325 29.0743 331.201 28.9623 331.044 28.8876C330.89 28.8089 330.719 28.7696 330.531 28.7696C330.259 28.7696 330.027 28.8561 329.835 29.0291C329.646 29.2021 329.538 29.442 329.51 29.7487H331.551ZM334.618 31.6006L333.35 30.1733V31.6006H332.814V27.2362H333.35V29.8017L334.595 28.3686H335.344L333.822 29.9787L335.35 31.6006H334.618Z" fill="#B7B7B7"/>
<path d="M339.287 27.5496L342.221 30.4986L345.154 27.5496" fill="#B7B7B7"/>
<defs>
<filter id="filter0_d_6_1574" x="0.890576" y="0.593621" width="373.219" height="394.302" filterUnits="userSpaceOnUse" color-interpolation-filters="sRGB">
<feFlood flood-opacity="0" result="BackgroundImageFix"/>
<feColorMatrix in="SourceAlpha" type="matrix" values="0 0 0 0 0 0 0 0 0 0 0 0 0 0 0 0 0 0 127 0" result="hardAlpha"/>
<feOffset dy="5.89787"/>
<feGaussianBlur stdDeviation="5.65212"/>
<feColorMatrix type="matrix" values="0 0 0 0 0.243137 0 0 0 0 0.286275 0 0 0 0 0.329412 0 0 0 0.04 0"/>
<feBlend mode="normal" in2="BackgroundImageFix" result="effect1_dropShadow_6_1574"/>
<feBlend mode="normal" in="SourceGraphic" in2="effect1_dropShadow_6_1574" result="shape"/>
</filter>
<filter id="filter1_d_6_1574" x="15.5583" y="40.8198" width="344.812" height="47.183" filterUnits="userSpaceOnUse" color-interpolation-filters="sRGB">
<feFlood flood-opacity="0" result="BackgroundImageFix"/>
<feColorMatrix in="SourceAlpha" type="matrix" values="0 0 0 0 0 0 0 0 0 0 0 0 0 0 0 0 0 0 127 0" result="hardAlpha"/>
<feOffset dy="5.89787"/>
<feGaussianBlur stdDeviation="5.65212"/>
<feColorMatrix type="matrix" values="0 0 0 0 0.243137 0 0 0 0 0.286275 0 0 0 0 0.329412 0 0 0 0.04 0"/>
<feBlend mode="normal" in2="BackgroundImageFix" result="effect1_dropShadow_6_1574"/>
<feBlend mode="normal" in="SourceGraphic" in2="effect1_dropShadow_6_1574" result="shape"/>
</filter>
</defs>
</svg>
