<svg width="393" height="284" viewBox="0 0 393 284" fill="none" xmlns="http://www.w3.org/2000/svg">
<rect width="393" height="284" fill="#F5F5F5"/>
<g clip-path="url(#clip0_0_1)">
<rect width="393" height="1320" transform="translate(0 -777)" fill="white"/>
<path d="M0 -777H393V543H0V-777Z" fill="#24292E"/>
<g filter="url(#filter0_d_0_1)">
<rect x="21" y="-135.382" width="351" height="125.924" rx="14.6608" fill="#2F363D"/>
</g>
<mask id="mask0_0_1" style="mask-type:alpha" maskUnits="userSpaceOnUse" x="21" y="-136" width="351" height="127">
<rect x="21" y="-135.382" width="351" height="125.924" rx="15" fill="#2F363D"/>
</mask>
<g mask="url(#mask0_0_1)">
</g>
<g filter="url(#filter1_d_0_1)">
<rect x="21" y="13.5427" width="351" height="227" rx="17.1608" fill="#2F363D"/>
</g>
<g filter="url(#filter2_d_0_1)">
<rect x="21" y="13.5427" width="351" height="227" rx="15" fill="#2F363D"/>
</g>
<path d="M117.327 123.209C117.327 78.7743 153.348 42.753 197.783 42.753C242.217 42.753 278.239 78.7743 278.239 123.209C278.239 167.643 242.217 203.665 197.783 203.665C153.348 203.665 117.327 167.643 117.327 123.209ZM253.329 123.209C253.329 92.5314 228.46 67.6624 197.783 67.6624C167.105 67.6624 142.236 92.5314 142.236 123.209C142.236 153.886 167.105 178.755 197.783 178.755C228.46 178.755 253.329 153.886 253.329 123.209Z" fill="#3C65F5"/>
<path fill-rule="evenodd" clip-rule="evenodd" d="M107.996 123.209C107.996 73.6224 148.194 33.4247 197.78 33.4247C247.367 33.4247 287.564 73.6224 287.564 123.209C287.564 172.795 247.367 212.993 197.78 212.993C148.194 212.993 107.996 172.795 107.996 123.209ZM243.999 123.209C243.999 97.6832 223.306 76.9906 197.78 76.9906C172.255 76.9905 151.562 97.6832 151.562 123.209C151.562 148.734 172.255 169.427 197.78 169.427C223.306 169.427 243.999 148.734 243.999 123.209ZM197.78 42.7529C153.346 42.7529 117.324 78.7742 117.324 123.209C117.324 167.643 153.346 203.665 197.78 203.665C242.215 203.665 278.236 167.643 278.236 123.209C278.236 78.7742 242.215 42.7529 197.78 42.7529ZM197.78 67.6623C228.458 67.6623 253.327 92.5313 253.327 123.209C253.327 153.886 228.458 178.755 197.78 178.755C167.103 178.755 142.234 153.886 142.234 123.209C142.234 92.5313 167.103 67.6623 197.78 67.6623Z" fill="#2F363D"/>
<path d="M197.78 203.665C183.677 203.665 169.821 199.957 157.602 192.914C145.383 185.871 135.23 175.74 128.161 163.536C121.092 151.332 117.355 137.485 117.325 123.381C117.294 109.278 120.972 95.4141 127.989 83.1801C135.006 70.946 145.115 60.7714 157.304 53.6761C169.493 46.5808 183.332 42.8141 197.436 42.7537C211.539 42.6933 225.411 46.3413 237.66 53.3319C249.909 60.3225 260.105 70.4102 267.226 82.5837L245.726 95.1614C240.809 86.7568 233.77 79.7923 225.313 74.9661C216.856 70.1398 207.279 67.6212 197.542 67.6629C187.806 67.7047 178.251 70.3051 169.836 75.2037C161.421 80.1023 154.441 87.1268 149.597 95.5731C144.752 104.019 142.213 113.591 142.234 123.328C142.255 133.065 144.835 142.625 149.715 151.051C154.596 159.476 161.606 166.471 170.041 171.333C178.477 176.196 188.043 178.755 197.78 178.755L197.78 203.665Z" fill="#FF4F4F"/>
<path fill-rule="evenodd" clip-rule="evenodd" d="M207.108 212.993L197.78 212.993C182.042 212.993 166.579 208.856 152.944 200.996C139.308 193.137 127.978 181.831 120.089 168.212C112.2 154.593 108.03 139.14 107.996 123.401C107.963 107.662 112.067 92.1915 119.897 78.539C127.727 64.8865 139.009 53.5322 152.611 45.6142C166.213 37.6963 181.657 33.4929 197.396 33.4255C213.134 33.3581 228.614 37.429 242.283 45.2301C255.952 53.0312 267.331 64.2885 275.278 77.8734L279.988 85.9251L242.384 107.923L237.674 99.8715C233.583 92.8783 227.726 87.0834 220.689 83.0676C213.652 79.0519 205.684 76.9563 197.582 76.991C189.481 77.0257 181.53 79.1894 174.528 83.2654C167.526 87.3413 161.719 93.1862 157.688 100.214C153.657 107.242 151.545 115.206 151.562 123.308C151.579 131.41 153.726 139.364 157.787 146.375C161.848 153.386 167.68 159.206 174.7 163.251C181.719 167.297 189.678 169.427 197.78 169.427L207.108 169.427L207.108 212.993ZM245.716 95.145C240.8 86.7478 233.764 79.7891 225.313 74.966C216.856 70.1397 207.279 67.6211 197.542 67.6628C187.805 67.7046 178.25 70.305 169.835 75.2036C161.42 80.1022 154.441 87.1267 149.596 95.5731C144.752 104.019 142.213 113.591 142.234 123.328C142.255 133.065 144.835 142.625 149.715 151.051C154.596 159.476 161.605 166.471 170.041 171.333C178.477 176.196 188.043 178.755 197.78 178.755L197.78 203.665C194.654 203.665 191.539 203.482 188.452 203.122C177.614 201.857 167.112 198.396 157.602 192.914C145.383 185.871 135.23 175.74 128.161 163.536C121.092 151.332 117.355 137.485 117.324 123.381C117.294 109.278 120.972 95.414 127.989 83.18C135.006 70.9459 145.115 60.7713 157.304 53.676C169.493 46.5807 183.332 42.8141 197.436 42.7536C211.539 42.6932 225.41 46.3412 237.659 53.3318C247.193 58.7726 255.483 66.0896 262.048 74.8058C263.913 77.283 265.64 79.8732 267.216 82.5655C267.219 82.5715 267.223 82.5775 267.226 82.5836L245.725 95.1613C245.722 95.1559 245.719 95.1504 245.716 95.145Z" fill="#2F363D"/>
<path d="M197.78 203.665C180.143 203.665 162.994 197.869 148.973 187.17C134.952 176.471 124.835 161.46 120.179 144.449C115.522 127.437 116.585 109.367 123.204 93.0186C129.822 76.6701 141.629 62.9494 156.807 53.9675L169.493 75.4049C159.013 81.6059 150.862 91.0787 146.293 102.366C141.724 113.653 140.99 126.128 144.204 137.873C147.419 149.618 154.404 159.981 164.084 167.367C173.764 174.754 185.604 178.755 197.78 178.755L197.78 203.665Z" fill="#1BD344"/>
<path fill-rule="evenodd" clip-rule="evenodd" d="M207.111 212.993L197.783 212.993C178.1 212.993 158.964 206.525 143.317 194.586C127.67 182.646 116.38 165.895 111.184 146.911C105.988 127.927 107.174 107.762 114.559 89.5182C121.945 71.2742 135.121 55.9626 152.059 45.9394L160.087 41.1889L182.274 78.6823L174.246 83.4328C165.526 88.5924 158.744 96.4744 154.942 105.866C151.14 115.257 150.529 125.638 153.204 135.41C155.879 145.183 161.691 153.805 169.745 159.952C177.8 166.098 187.651 169.427 197.783 169.427L207.111 169.427L207.111 212.993ZM169.495 75.4048C159.016 81.6058 150.864 91.0786 146.295 102.366C141.726 113.652 140.992 126.128 144.207 137.873C147.421 149.617 154.406 159.981 164.086 167.367C173.767 174.754 185.606 178.755 197.783 178.755L197.783 203.665C194.653 203.665 191.539 203.482 188.454 203.122C174.158 201.453 160.509 195.971 148.975 187.17C134.954 176.471 124.837 161.46 120.181 144.449C115.525 127.437 116.588 109.367 123.206 93.0185C128.65 79.5711 137.604 67.9015 149.058 59.1847C151.529 57.3042 154.116 55.5612 156.81 53.9674L169.495 75.4048Z" fill="#2F363D"/>
<path d="M195.451 212.993C182.646 212.993 170.005 210.104 158.472 204.541C146.938 198.978 136.808 190.884 128.836 180.863C120.865 170.841 115.257 159.15 112.43 146.661C109.604 134.172 109.632 121.205 112.512 108.728L155.151 118.571C153.752 124.633 153.738 130.933 155.112 137.002C156.485 143.071 159.21 148.751 163.083 153.62C166.957 158.49 171.879 162.422 177.483 165.125C183.087 167.829 189.229 169.232 195.451 169.232L195.451 212.993Z" fill="#FFF742"/>
<path fill-rule="evenodd" clip-rule="evenodd" d="M204.776 222.321L195.448 222.321C181.24 222.321 167.214 219.115 154.416 212.942C141.619 206.77 130.379 197.789 121.533 186.669C112.688 175.55 106.466 162.578 103.329 148.72C100.193 134.862 100.224 120.474 103.42 106.63L105.518 97.5406L166.336 111.579L164.238 120.668C163.154 125.364 163.143 130.243 164.207 134.943C165.271 139.643 167.381 144.042 170.381 147.813C173.38 151.584 177.192 154.63 181.533 156.723C185.873 158.817 190.629 159.904 195.448 159.904L204.776 159.904L204.776 222.321ZM155.144 118.591C153.749 124.647 153.737 130.94 155.109 137.002C156.482 143.07 159.207 148.751 163.08 153.62C166.954 158.489 171.876 162.422 177.48 165.125C183.084 167.828 189.226 169.232 195.448 169.232L195.448 212.993C192.324 212.993 189.21 212.821 186.12 212.48C176.542 211.424 167.189 208.746 158.469 204.54C146.935 198.977 136.805 190.884 128.834 180.862C120.862 170.841 115.254 159.15 112.428 146.661C110.291 137.218 109.785 127.503 110.911 117.932C111.272 114.858 111.802 111.798 112.5 108.767C112.503 108.754 112.506 108.741 112.509 108.728L155.148 118.57C155.147 118.577 155.145 118.584 155.144 118.591Z" fill="#2F363D"/>
<path d="M137.489 270.739V275.131H141.949V276.107H137.489V280.567H142.453V281.543H136.311V269.763H142.453V270.739H137.489ZM148.039 280.398L151.136 272.354H152.381L148.696 281.543H147.366L143.681 272.354H144.943L148.039 280.398ZM162.291 276.477C162.291 276.881 162.28 277.19 162.257 277.403H154.634C154.668 278.098 154.836 278.693 155.139 279.187C155.442 279.68 155.84 280.056 156.334 280.314C156.827 280.561 157.366 280.684 157.949 280.684C158.712 280.684 159.352 280.499 159.868 280.129C160.395 279.759 160.743 279.26 160.911 278.631H162.156C161.932 279.529 161.45 280.264 160.709 280.836C159.98 281.397 159.06 281.677 157.949 281.677C157.085 281.677 156.311 281.487 155.627 281.105C154.943 280.713 154.404 280.163 154.011 279.456C153.63 278.738 153.439 277.902 153.439 276.949C153.439 275.995 153.63 275.159 154.011 274.441C154.393 273.723 154.926 273.173 155.61 272.792C156.295 272.41 157.074 272.22 157.949 272.22C158.824 272.22 159.587 272.41 160.238 272.792C160.9 273.173 161.405 273.689 161.753 274.34C162.112 274.98 162.291 275.692 162.291 276.477ZM161.096 276.444C161.107 275.759 160.967 275.176 160.676 274.693C160.395 274.211 160.008 273.846 159.514 273.6C159.021 273.353 158.482 273.229 157.899 273.229C157.024 273.229 156.278 273.51 155.661 274.071C155.044 274.632 154.701 275.423 154.634 276.444H161.096ZM168.754 272.186C169.854 272.186 170.751 272.528 171.447 273.213C172.143 273.886 172.49 274.867 172.49 276.158V281.543H171.329V276.292C171.329 275.294 171.077 274.531 170.572 274.004C170.078 273.476 169.4 273.213 168.536 273.213C167.649 273.213 166.943 273.493 166.415 274.054C165.888 274.615 165.624 275.44 165.624 276.528V281.543H164.446V272.354H165.624V273.919C165.916 273.358 166.337 272.932 166.886 272.64C167.436 272.337 168.059 272.186 168.754 272.186ZM176.627 273.347V279.052C176.627 279.613 176.734 280 176.947 280.213C177.16 280.426 177.536 280.533 178.074 280.533H179.151V281.543H177.889C177.059 281.543 176.442 281.352 176.038 280.971C175.634 280.578 175.432 279.938 175.432 279.052V273.347H174.153V272.354H175.432V270.049H176.627V272.354H179.151V273.347H176.627ZM194.968 273.213C194.631 272.438 194.115 271.833 193.42 271.395C192.735 270.946 191.928 270.722 190.996 270.722C190.121 270.722 189.336 270.924 188.64 271.328C187.945 271.732 187.395 272.309 186.991 273.061C186.587 273.802 186.385 274.665 186.385 275.653C186.385 276.64 186.587 277.509 186.991 278.261C187.395 279.013 187.945 279.591 188.64 279.994C189.336 280.398 190.121 280.6 190.996 280.6C191.815 280.6 192.55 280.426 193.201 280.079C193.863 279.72 194.39 279.215 194.783 278.564C195.187 277.902 195.417 277.134 195.473 276.259H190.525V275.299H196.718V276.158C196.662 277.19 196.381 278.127 195.877 278.968C195.372 279.798 194.693 280.454 193.84 280.937C192.999 281.419 192.051 281.661 190.996 281.661C189.908 281.661 188.921 281.408 188.034 280.903C187.148 280.387 186.447 279.675 185.931 278.766C185.426 277.846 185.174 276.808 185.174 275.653C185.174 274.497 185.426 273.465 185.931 272.556C186.447 271.636 187.148 270.924 188.034 270.419C188.921 269.903 189.908 269.645 190.996 269.645C192.253 269.645 193.352 269.959 194.295 270.587C195.237 271.216 195.921 272.091 196.348 273.213H194.968ZM198.337 276.932C198.337 275.989 198.523 275.165 198.893 274.458C199.274 273.74 199.796 273.19 200.458 272.809C201.131 272.416 201.888 272.22 202.73 272.22C203.605 272.22 204.356 272.422 204.985 272.826C205.624 273.229 206.084 273.745 206.365 274.374V272.354H207.543V281.543H206.365V279.506C206.073 280.135 205.607 280.656 204.968 281.072C204.34 281.475 203.588 281.677 202.713 281.677C201.883 281.677 201.131 281.481 200.458 281.088C199.796 280.696 199.274 280.14 198.893 279.422C198.523 278.704 198.337 277.874 198.337 276.932ZM206.365 276.949C206.365 276.208 206.213 275.557 205.91 274.996C205.607 274.435 205.192 274.004 204.665 273.701C204.149 273.398 203.577 273.246 202.948 273.246C202.298 273.246 201.714 273.392 201.198 273.684C200.682 273.975 200.273 274.402 199.97 274.963C199.678 275.512 199.532 276.169 199.532 276.932C199.532 277.683 199.678 278.345 199.97 278.917C200.273 279.478 200.682 279.91 201.198 280.213C201.714 280.505 202.298 280.651 202.948 280.651C203.577 280.651 204.149 280.499 204.665 280.196C205.192 279.894 205.607 279.462 205.91 278.901C206.213 278.34 206.365 277.689 206.365 276.949ZM211.41 269.09V281.543H210.232V269.09H211.41ZM215.256 269.09V281.543H214.078V269.09H215.256ZM226.236 276.477C226.236 276.881 226.225 277.19 226.203 277.403H218.579C218.613 278.098 218.781 278.693 219.084 279.187C219.387 279.68 219.785 280.056 220.279 280.314C220.773 280.561 221.311 280.684 221.895 280.684C222.658 280.684 223.297 280.499 223.813 280.129C224.34 279.759 224.688 279.26 224.856 278.631H226.102C225.877 279.529 225.395 280.264 224.655 280.836C223.925 281.397 223.005 281.677 221.895 281.677C221.031 281.677 220.257 281.487 219.572 281.105C218.888 280.713 218.349 280.163 217.957 279.456C217.575 278.738 217.385 277.902 217.385 276.949C217.385 275.995 217.575 275.159 217.957 274.441C218.338 273.723 218.871 273.173 219.555 272.792C220.24 272.41 221.02 272.22 221.895 272.22C222.77 272.22 223.533 272.41 224.183 272.792C224.845 273.173 225.35 273.689 225.698 274.34C226.057 274.98 226.236 275.692 226.236 276.477ZM225.042 276.444C225.053 275.759 224.913 275.176 224.621 274.693C224.34 274.211 223.953 273.846 223.46 273.6C222.966 273.353 222.428 273.229 221.844 273.229C220.969 273.229 220.223 273.51 219.606 274.071C218.989 274.632 218.647 275.423 218.579 276.444H225.042ZM229.57 273.987C229.828 273.415 230.22 272.971 230.748 272.657C231.286 272.343 231.942 272.186 232.717 272.186V273.415H232.397C231.544 273.415 230.86 273.645 230.344 274.104C229.828 274.564 229.57 275.333 229.57 276.41V281.543H228.392V272.354H229.57V273.987ZM235.078 270.621C234.842 270.621 234.64 270.537 234.472 270.369C234.304 270.2 234.219 269.993 234.219 269.746C234.219 269.499 234.304 269.297 234.472 269.14C234.64 268.972 234.842 268.888 235.078 268.888C235.313 268.888 235.515 268.972 235.684 269.14C235.852 269.297 235.936 269.499 235.936 269.746C235.936 269.993 235.852 270.2 235.684 270.369C235.515 270.537 235.313 270.621 235.078 270.621ZM235.667 272.354V281.543H234.489V272.354H235.667ZM246.648 276.477C246.648 276.881 246.636 277.19 246.614 277.403H238.991C239.024 278.098 239.193 278.693 239.496 279.187C239.798 279.68 240.197 280.056 240.69 280.314C241.184 280.561 241.723 280.684 242.306 280.684C243.069 280.684 243.708 280.499 244.224 280.129C244.752 279.759 245.099 279.26 245.268 278.631H246.513C246.289 279.529 245.806 280.264 245.066 280.836C244.337 281.397 243.417 281.677 242.306 281.677C241.442 281.677 240.668 281.487 239.984 281.105C239.299 280.713 238.761 280.163 238.368 279.456C237.987 278.738 237.796 277.902 237.796 276.949C237.796 275.995 237.987 275.159 238.368 274.441C238.749 273.723 239.282 273.173 239.967 272.792C240.651 272.41 241.431 272.22 242.306 272.22C243.181 272.22 243.944 272.41 244.595 272.792C245.257 273.173 245.761 273.689 246.109 274.34C246.468 274.98 246.648 275.692 246.648 276.477ZM245.453 276.444C245.464 275.759 245.324 275.176 245.032 274.693C244.752 274.211 244.365 273.846 243.871 273.6C243.377 273.353 242.839 273.229 242.255 273.229C241.38 273.229 240.634 273.51 240.017 274.071C239.4 274.632 239.058 275.423 238.991 276.444H245.453ZM251.967 281.677C250.912 281.677 250.048 281.436 249.375 280.954C248.713 280.46 248.343 279.793 248.264 278.951H249.476C249.532 279.467 249.773 279.888 250.2 280.213C250.637 280.527 251.221 280.684 251.95 280.684C252.589 280.684 253.089 280.533 253.448 280.23C253.818 279.927 254.003 279.551 254.003 279.103C254.003 278.788 253.902 278.53 253.7 278.328C253.498 278.127 253.24 277.969 252.926 277.857C252.623 277.734 252.208 277.605 251.681 277.47C250.996 277.291 250.441 277.111 250.015 276.932C249.588 276.752 249.224 276.489 248.921 276.141C248.629 275.782 248.483 275.305 248.483 274.71C248.483 274.262 248.618 273.846 248.887 273.465C249.156 273.084 249.538 272.781 250.031 272.556C250.525 272.332 251.086 272.22 251.714 272.22C252.702 272.22 253.498 272.472 254.104 272.977C254.71 273.471 255.035 274.155 255.08 275.03H253.902C253.868 274.492 253.655 274.06 253.262 273.734C252.881 273.398 252.354 273.229 251.681 273.229C251.086 273.229 250.604 273.37 250.233 273.65C249.863 273.931 249.678 274.278 249.678 274.693C249.678 275.052 249.785 275.35 249.998 275.585C250.222 275.81 250.497 275.989 250.822 276.124C251.148 276.247 251.585 276.388 252.135 276.545C252.797 276.724 253.324 276.898 253.717 277.066C254.11 277.235 254.446 277.481 254.727 277.807C255.007 278.132 255.153 278.564 255.164 279.103C255.164 279.596 255.029 280.039 254.76 280.432C254.491 280.813 254.115 281.116 253.633 281.341C253.15 281.565 252.595 281.677 251.967 281.677Z" fill="white"/>
</g>
<defs>
<filter id="filter0_d_0_1" x="-3.08555" y="-146.901" width="399.171" height="174.096" filterUnits="userSpaceOnUse" color-interpolation-filters="sRGB">
<feFlood flood-opacity="0" result="BackgroundImageFix"/>
<feColorMatrix in="SourceAlpha" type="matrix" values="0 0 0 0 0 0 0 0 0 0 0 0 0 0 0 0 0 0 127 0" result="hardAlpha"/>
<feOffset dy="12.5664"/>
<feGaussianBlur stdDeviation="12.0428"/>
<feColorMatrix type="matrix" values="0 0 0 0 0.243137 0 0 0 0 0.286275 0 0 0 0 0.329412 0 0 0 0.04 0"/>
<feBlend mode="normal" in2="BackgroundImageFix" result="effect1_dropShadow_0_1"/>
<feBlend mode="normal" in="SourceGraphic" in2="effect1_dropShadow_0_1" result="shape"/>
</filter>
<filter id="filter1_d_0_1" x="-7.19267" y="0.0592747" width="407.385" height="283.385" filterUnits="userSpaceOnUse" color-interpolation-filters="sRGB">
<feFlood flood-opacity="0" result="BackgroundImageFix"/>
<feColorMatrix in="SourceAlpha" type="matrix" values="0 0 0 0 0 0 0 0 0 0 0 0 0 0 0 0 0 0 127 0" result="hardAlpha"/>
<feOffset dy="14.7092"/>
<feGaussianBlur stdDeviation="14.0963"/>
<feColorMatrix type="matrix" values="0 0 0 0 0.243137 0 0 0 0 0.286275 0 0 0 0 0.329412 0 0 0 0.04 0"/>
<feBlend mode="normal" in2="BackgroundImageFix" result="effect1_dropShadow_0_1"/>
<feBlend mode="normal" in="SourceGraphic" in2="effect1_dropShadow_0_1" result="shape"/>
</filter>
<filter id="filter2_d_0_1" x="-7.19267" y="0.0592747" width="407.385" height="283.385" filterUnits="userSpaceOnUse" color-interpolation-filters="sRGB">
<feFlood flood-opacity="0" result="BackgroundImageFix"/>
<feColorMatrix in="SourceAlpha" type="matrix" values="0 0 0 0 0 0 0 0 0 0 0 0 0 0 0 0 0 0 127 0" result="hardAlpha"/>
<feOffset dy="14.7092"/>
<feGaussianBlur stdDeviation="14.0963"/>
<feColorMatrix type="matrix" values="0 0 0 0 0.243137 0 0 0 0 0.286275 0 0 0 0 0.329412 0 0 0 0.04 0"/>
<feBlend mode="normal" in2="BackgroundImageFix" result="effect1_dropShadow_0_1"/>
<feBlend mode="normal" in="SourceGraphic" in2="effect1_dropShadow_0_1" result="shape"/>
</filter>
<clipPath id="clip0_0_1">
<rect width="393" height="1320" fill="white" transform="translate(0 -777)"/>
</clipPath>
</defs>
</svg>
