<svg width="56" height="56" viewBox="0 0 56 56" fill="none" xmlns="http://www.w3.org/2000/svg">
<rect x="6.10352e-05" width="56" height="56" rx="12" fill="#13B497"/>
<path d="M28.0002 23.625C27.1349 23.625 26.289 23.8816 25.5696 24.3623C24.8501 24.843 24.2893 25.5263 23.9582 26.3258C23.6271 27.1252 23.5404 28.0048 23.7092 28.8535C23.8781 29.7022 24.2947 30.4817 24.9066 31.0936C25.5184 31.7054 26.298 32.1221 27.1467 32.2909C27.9953 32.4597 28.875 32.3731 29.6744 32.042C30.4738 31.7108 31.1571 31.1501 31.6378 30.4306C32.1186 29.7111 32.3752 28.8653 32.3752 28C32.3738 26.8401 31.9124 25.7281 31.0923 24.9079C30.2721 24.0877 29.1601 23.6264 28.0002 23.625ZM28.0002 30.625C27.481 30.625 26.9735 30.471 26.5418 30.1826C26.1101 29.8942 25.7737 29.4842 25.575 29.0045C25.3763 28.5249 25.3243 27.9971 25.4256 27.4879C25.5269 26.9787 25.7769 26.511 26.144 26.1438C26.5111 25.7767 26.9789 25.5267 27.4881 25.4254C27.9973 25.3241 28.5251 25.3761 29.0047 25.5748C29.4844 25.7735 29.8943 26.1099 30.1828 26.5416C30.4712 26.9733 30.6252 27.4808 30.6252 28C30.6244 28.6959 30.3476 29.3632 29.8555 29.8553C29.3634 30.3474 28.6961 30.6242 28.0002 30.625Z" fill="white"/>
<path d="M19.4894 22.5598C19.0591 22.3982 18.5828 22.4102 18.1613 22.5935C17.7398 22.7767 17.4061 23.1167 17.2308 23.5416C17.0554 23.9664 17.0523 24.4428 17.2219 24.87C17.3916 25.2972 17.7207 25.6416 18.1398 25.8304C18.5661 26.0107 18.9298 26.3126 19.1855 26.6984C19.4412 27.0843 19.5776 27.5369 19.5776 27.9997C19.5776 28.4626 19.4412 28.9152 19.1855 29.301C18.9298 29.6869 18.5661 29.9888 18.1398 30.1691C17.7206 30.3579 17.3914 30.7024 17.2217 31.1296C17.052 31.5569 17.0553 32.0334 17.2307 32.4583C17.4061 32.8833 17.7399 33.2233 18.1616 33.4064C18.5832 33.5896 19.0596 33.6015 19.4899 33.4397C19.9193 33.2648 20.3907 33.2205 20.8451 33.3124C21.2996 33.4042 21.7168 33.6281 22.0445 33.956C22.3723 34.2839 22.596 34.7013 22.6876 35.1557C22.7792 35.6102 22.7347 36.0816 22.5597 36.5109C22.3928 36.9423 22.4031 37.4222 22.5885 37.846C22.7738 38.2698 23.1191 38.6032 23.5492 38.7736C23.7646 38.8627 23.9954 38.9086 24.2285 38.9086C24.569 38.911 24.9026 38.8128 25.1876 38.6263C25.4725 38.4399 25.6961 38.1735 25.8302 37.8605C26.0105 37.4342 26.3125 37.0705 26.6983 36.8148C27.0841 36.559 27.5367 36.4227 27.9996 36.4227C28.4624 36.4227 28.9151 36.559 29.3009 36.8148C29.6867 37.0705 29.9886 37.4342 30.1689 37.8605C30.3577 38.2797 30.7022 38.6089 31.1295 38.7786C31.5567 38.9482 32.0332 38.945 32.4582 38.7696C32.8831 38.5942 33.2231 38.2603 33.4063 37.8387C33.5894 37.417 33.6013 36.9407 33.4395 36.5104C33.2646 36.081 33.2204 35.6096 33.3122 35.1552C33.4041 34.7007 33.628 34.2835 33.9559 33.9558C34.2838 33.628 34.7011 33.4043 35.1556 33.3127C35.61 33.221 36.0815 33.2655 36.5107 33.4406C36.9395 33.6071 37.4164 33.5981 37.8386 33.4158C38.2608 33.2334 38.5943 32.8923 38.767 32.466L37.9646 32.1174L37.1684 31.8192C36.4206 31.5137 35.5991 31.4361 34.8073 31.5962C34.0154 31.7563 33.2886 32.147 32.7182 32.719C32.1483 33.2936 31.7567 34.0207 31.5906 34.8128C31.4246 35.605 31.4912 36.4282 31.7825 37.1833C31.4704 36.438 30.9446 35.8019 30.2715 35.355C29.5984 34.9082 28.8081 34.6706 28.0001 34.6723C27.1904 34.6748 26.3988 34.9119 25.7211 35.355C25.0433 35.798 24.5085 36.428 24.1814 37.1686C24.4867 36.4208 24.5642 35.5993 24.4041 34.8076C24.244 34.0158 23.8535 33.289 23.2816 32.7185C22.707 32.1486 21.9798 31.757 21.1878 31.591C20.3957 31.425 19.5725 31.4916 18.8174 31.7828C19.5626 31.4705 20.1986 30.9447 20.6454 30.2715C21.0922 29.5983 21.3296 28.8079 21.3278 28C21.3253 27.1903 21.0882 26.3986 20.6452 25.7209C20.2021 25.0432 19.5721 24.5084 18.8315 24.1812C19.5793 24.4867 20.4008 24.5643 21.1926 24.4042C21.9844 24.2441 22.7112 23.8535 23.2816 23.2814C23.8516 22.7069 24.2432 21.9797 24.4092 21.1876C24.5753 20.3955 24.5086 19.5723 24.2173 18.8172C24.5296 19.5624 25.0554 20.1984 25.7286 20.6452C26.4018 21.092 27.1922 21.3294 28.0001 21.3276C28.8098 21.3251 29.6015 21.088 30.2792 20.645C30.9569 20.2019 31.4918 19.5719 31.8189 18.8313C31.5136 19.5791 31.4361 20.4006 31.5962 21.1923C31.7563 21.9841 32.1468 22.7109 32.7187 23.2814C33.2934 23.8511 34.0206 24.2425 34.8126 24.4085C35.6046 24.5745 36.4278 24.5081 37.1829 24.2172C36.4413 24.5287 35.8078 25.0517 35.3614 25.7208C34.915 26.3899 34.6754 27.1757 34.6725 27.98C34.6696 28.7844 34.9035 29.5719 35.345 30.2442C35.7866 30.9165 36.4163 31.4441 37.1556 31.761C37.158 31.7682 37.158 31.776 37.1556 31.7832L37.9644 32.1169L38.7684 32.4617L38.7731 32.4506C38.9518 32.0268 38.9561 31.5497 38.7853 31.1228C38.6144 30.6959 38.2822 30.3535 37.8605 30.17C37.4342 29.9896 37.0705 29.6877 36.8148 29.3019C36.559 28.9161 36.4227 28.4635 36.4227 28.0006C36.4227 27.5377 36.559 27.0851 36.8148 26.6993C37.0705 26.3135 37.4342 26.0116 37.8605 25.8313C38.2797 25.6425 38.6089 25.298 38.7786 24.8707C38.9482 24.4435 38.945 23.967 38.7696 23.542C38.5942 23.1171 38.2604 22.7771 37.8387 22.5939C37.417 22.4108 36.9407 22.3989 36.5104 22.5607C36.081 22.7356 35.6096 22.7798 35.1552 22.688C34.7007 22.5961 34.2835 22.3722 33.9558 22.0443C33.628 21.7164 33.4043 21.2991 33.3127 20.8446C33.2211 20.3901 33.2656 19.9187 33.4406 19.4894C33.6024 19.0592 33.5904 18.5829 33.4073 18.1613C33.2241 17.7397 32.8841 17.4059 32.4592 17.2305C32.0343 17.0551 31.5578 17.0519 31.1306 17.2216C30.7034 17.3913 30.3589 17.7205 30.1701 18.1396C29.9898 18.5659 29.6879 18.9296 29.3021 19.1853C28.9163 19.4411 28.4637 19.5774 28.0008 19.5774C27.5379 19.5774 27.0853 19.4411 26.6995 19.1853C26.3137 18.9296 26.0118 18.5659 25.8315 18.1396C25.6426 17.7204 25.2982 17.3912 24.8709 17.2215C24.4436 17.0519 23.9671 17.0551 23.5422 17.2305C23.1173 17.4059 22.7773 17.7398 22.5941 18.1614C22.411 18.5831 22.399 19.0594 22.5609 19.4897C22.7357 19.9191 22.78 20.3905 22.6882 20.8449C22.5963 21.2994 22.3724 21.7166 22.0445 22.0443C21.7166 22.3721 21.2993 22.5958 20.8448 22.6874C20.3903 22.7791 19.9189 22.7345 19.4896 22.5595L19.4894 22.5598Z" fill="white"/>
</svg>

