<svg width="393" height="175" viewBox="0 0 393 175" fill="none" xmlns="http://www.w3.org/2000/svg">
<g filter="url(#filter0_d_6_2144)">
<rect x="21" y="11.6182" width="351" height="125.924" rx="14.6608" fill="#2F363D"/>
</g>
<mask id="mask0_6_2144" style="mask-type:alpha" maskUnits="userSpaceOnUse" x="21" y="11" width="351" height="127">
<rect x="21" y="11.6182" width="351" height="125.924" rx="15" fill="#2F363D"/>
</mask>
<g mask="url(#mask0_6_2144)">
<path d="M133.88 105.415C91.1262 100.831 39.4321 123.812 18.9292 135.876L17.8938 149.58H385.46V86.1127C323.447 74.0489 297.735 84.3031 252.864 109.336C207.993 134.368 187.322 111.145 133.88 105.415Z" fill="url(#paint0_linear_6_2144)"/>
<path fill-rule="evenodd" clip-rule="evenodd" d="M313.216 85.651C293.792 89.814 276.4 98.6006 253.97 111.283C242.565 117.732 232.595 121.129 223.178 122.446C213.76 123.764 205.027 122.982 196.14 121.231C189.914 120.005 183.518 118.279 176.761 116.457C173.951 115.699 171.079 114.924 168.131 114.162C158.03 111.548 146.836 109.017 133.63 107.582C112.717 105.309 89.4614 109.867 68.7678 116.593C48.1013 123.311 30.1995 132.121 20.0781 138.157L17.7803 135.076C28.1617 128.885 46.3584 119.936 67.3531 113.112C88.3207 106.297 112.289 101.532 134.13 103.906C147.644 105.374 159.075 107.963 169.282 110.604C172.346 111.396 175.282 112.188 178.123 112.955C184.807 114.758 190.967 116.42 197.031 117.614C205.602 119.303 213.789 120.011 222.538 118.787C231.287 117.563 240.727 114.389 251.757 108.152C274.198 95.4639 292.098 86.3686 312.251 82.0493C332.45 77.7202 354.72 78.2237 385.906 84.3725L385.014 87.9893C354.187 81.9112 332.595 81.4977 313.216 85.651Z" fill="#13B497"/>
</g>
<g filter="url(#filter1_d_6_2144)">
<path d="M185.628 69.9954C185.628 65.3686 189.379 61.6178 194.006 61.6178H252.835C257.462 61.6178 261.212 65.3686 261.212 69.9954V87.5434H194.006C189.379 87.5434 185.628 83.7927 185.628 79.1658V69.9954Z" fill="#2B7769"/>
</g>
<path d="M198.036 77.2083V76.1276L202.258 70.0706H203.992V75.9642H205.161V77.2083H203.992V79.1184H202.585V77.2083H198.036ZM202.648 71.5283L199.682 75.9642H202.648V71.5283ZM212.254 71.189H208.045V73.6897C208.221 73.4552 208.48 73.2583 208.824 73.0991C209.176 72.9399 209.548 72.8604 209.942 72.8604C210.646 72.8604 211.216 73.0112 211.651 73.3127C212.095 73.6143 212.409 73.9955 212.594 74.4563C212.786 74.9171 212.883 75.403 212.883 75.914C212.883 76.5339 212.761 77.0868 212.518 77.5727C212.284 78.0503 211.928 78.4273 211.45 78.7037C210.981 78.9802 210.403 79.1184 209.716 79.1184C208.803 79.1184 208.07 78.8922 207.517 78.4398C206.964 77.9874 206.633 77.3884 206.524 76.6428H207.919C208.011 77.0366 208.216 77.3507 208.535 77.5853C208.853 77.8115 209.251 77.9246 209.728 77.9246C210.323 77.9246 210.767 77.7445 211.061 77.3842C211.362 77.024 211.513 76.5465 211.513 75.9517C211.513 75.3485 211.362 74.8877 211.061 74.5694C210.759 74.2427 210.315 74.0793 209.728 74.0793C209.318 74.0793 208.97 74.184 208.685 74.3935C208.409 74.5945 208.208 74.871 208.082 75.2228H206.725V69.9324H212.254V71.189ZM214.185 71.2644V69.9575H216.799V79.1184H215.354V71.2644H214.185ZM221.695 75.6627L224.887 79.1184H222.952L220.388 76.1402V79.1184H218.956V69.8193H220.388V75.2228L222.902 72.1943H224.887L221.695 75.6627ZM230.611 73.2122C230.854 72.8939 231.185 72.6258 231.604 72.408C232.022 72.1901 232.496 72.0812 233.024 72.0812C233.627 72.0812 234.175 72.232 234.67 72.5336C235.172 72.8268 235.566 73.2415 235.851 73.7777C236.136 74.3139 236.278 74.9296 236.278 75.625C236.278 76.3203 236.136 76.9444 235.851 77.4973C235.566 78.0419 235.172 78.4691 234.67 78.7791C234.175 79.0807 233.627 79.2315 233.024 79.2315C232.496 79.2315 232.027 79.1268 231.616 78.9173C231.206 78.6995 230.87 78.4314 230.611 78.1131V82.4108H229.178V72.1943H230.611V73.2122ZM234.821 75.625C234.821 75.1474 234.72 74.7369 234.519 74.3935C234.326 74.0416 234.067 73.7777 233.74 73.6018C233.421 73.4175 233.078 73.3253 232.709 73.3253C232.349 73.3253 232.006 73.4175 231.679 73.6018C231.361 73.7861 231.101 74.0542 230.9 74.406C230.707 74.7579 230.611 75.1726 230.611 75.6501C230.611 76.1276 230.707 76.5465 230.9 76.9067C231.101 77.2586 231.361 77.5267 231.679 77.711C232.006 77.8953 232.349 77.9874 232.709 77.9874C233.078 77.9874 233.421 77.8953 233.74 77.711C234.067 77.5183 234.326 77.2418 234.519 76.8816C234.72 76.5214 234.821 76.1025 234.821 75.625ZM237.217 75.6501C237.217 74.938 237.36 74.3139 237.645 73.7777C237.938 73.2332 238.34 72.8143 238.851 72.5211C239.362 72.2278 239.948 72.0812 240.61 72.0812C241.448 72.0812 242.139 72.2823 242.684 72.6844C243.237 73.0782 243.609 73.6437 243.802 74.3809H242.256C242.131 74.0374 241.93 73.7693 241.653 73.5766C241.377 73.384 241.029 73.2876 240.61 73.2876C240.024 73.2876 239.555 73.4971 239.203 73.9159C238.859 74.3264 238.688 74.9045 238.688 75.6501C238.688 76.3957 238.859 76.9779 239.203 77.3968C239.555 77.8157 240.024 78.0251 240.61 78.0251C241.44 78.0251 241.988 77.6607 242.256 76.9319H243.802C243.601 77.6356 243.224 78.1969 242.671 78.6158C242.118 79.0263 241.431 79.2315 240.61 79.2315C239.948 79.2315 239.362 79.0849 238.851 78.7917C238.34 78.4901 237.938 78.0712 237.645 77.535C237.36 76.9905 237.217 76.3622 237.217 75.6501ZM247.743 79.2315C247.199 79.2315 246.708 79.1352 246.273 78.9425C245.846 78.7414 245.506 78.4733 245.255 78.1382C245.004 77.7948 244.87 77.4136 244.853 76.9947H246.336C246.361 77.2879 246.499 77.535 246.75 77.7361C247.01 77.9288 247.333 78.0251 247.718 78.0251C248.12 78.0251 248.43 77.9497 248.648 77.7989C248.874 77.6398 248.987 77.4387 248.987 77.1958C248.987 76.936 248.861 76.7434 248.61 76.6177C248.367 76.492 247.978 76.3538 247.441 76.203C246.922 76.0606 246.499 75.9224 246.172 75.7883C245.846 75.6543 245.561 75.449 245.318 75.1726C245.083 74.8961 244.966 74.5317 244.966 74.0793C244.966 73.7107 245.075 73.3756 245.293 73.074C245.51 72.764 245.82 72.5211 246.223 72.3451C246.633 72.1692 247.102 72.0812 247.63 72.0812C248.417 72.0812 249.05 72.2823 249.527 72.6844C250.013 73.0782 250.273 73.6185 250.307 74.3055H248.874C248.849 73.9955 248.723 73.7484 248.497 73.5641C248.271 73.3798 247.965 73.2876 247.58 73.2876C247.203 73.2876 246.914 73.3588 246.713 73.5012C246.512 73.6437 246.411 73.8322 246.411 74.0667C246.411 74.251 246.478 74.406 246.612 74.5317C246.746 74.6573 246.909 74.7579 247.102 74.8333C247.295 74.9003 247.58 74.9883 247.957 75.0972C248.459 75.2312 248.87 75.3694 249.188 75.5119C249.515 75.6459 249.796 75.847 250.03 76.115C250.265 76.3831 250.386 76.7392 250.395 77.1832C250.395 77.5769 250.286 77.9288 250.068 78.2388C249.85 78.5487 249.54 78.7917 249.138 78.9676C248.744 79.1435 248.279 79.2315 247.743 79.2315Z" fill="white"/>
<g filter="url(#filter2_d_6_2144)">
<path d="M269.079 104.878C269.079 109.339 265.464 112.954 261.004 112.954C256.544 112.954 252.929 109.339 252.929 104.878C252.929 100.418 256.544 96.8025 261.004 96.8025C265.464 96.8025 269.079 100.418 269.079 104.878Z" fill="#13B497"/>
<path d="M268.032 104.878C268.032 108.76 264.885 111.907 261.004 111.907C257.123 111.907 253.976 108.76 253.976 104.878C253.976 100.996 257.123 97.8497 261.004 97.8497C264.885 97.8497 268.032 100.996 268.032 104.878Z" stroke="#2F363D" stroke-width="2.0944"/>
</g>
<path d="M263.563 38.1555V39.0855H261.175V46.9143H260.031V39.0855H257.631V38.1555H263.563ZM268.388 39.9023C268.908 39.9023 269.377 40.0154 269.796 40.2416C270.215 40.4594 270.541 40.7903 270.776 41.2343C271.019 41.6783 271.14 42.2187 271.14 42.8554V46.9143H270.009V43.0187C270.009 42.3318 269.838 41.8082 269.494 41.4479C269.151 41.0793 268.682 40.895 268.087 40.895C267.484 40.895 267.002 41.0835 266.642 41.4605C266.29 41.8375 266.114 42.3862 266.114 43.1067V46.9143H264.97V37.6152H266.114V41.0081C266.34 40.6563 266.65 40.384 267.044 40.1913C267.446 39.9986 267.894 39.9023 268.388 39.9023ZM273.599 38.9095C273.381 38.9095 273.197 38.8341 273.046 38.6833C272.895 38.5325 272.82 38.3482 272.82 38.1304C272.82 37.9126 272.895 37.7283 273.046 37.5775C273.197 37.4267 273.381 37.3513 273.599 37.3513C273.808 37.3513 273.984 37.4267 274.127 37.5775C274.278 37.7283 274.353 37.9126 274.353 38.1304C274.353 38.3482 274.278 38.5325 274.127 38.6833C273.984 38.8341 273.808 38.9095 273.599 38.9095ZM274.152 40.0279V46.9143H273.008V40.0279H274.152ZM278.539 47.0274C278.011 47.0274 277.538 46.9394 277.119 46.7635C276.7 46.5792 276.369 46.3279 276.126 46.0095C275.883 45.6828 275.749 45.31 275.724 44.8911H276.905C276.939 45.2346 277.098 45.5153 277.383 45.7331C277.676 45.9509 278.057 46.0598 278.526 46.0598C278.962 46.0598 279.305 45.9635 279.557 45.7708C279.808 45.5781 279.934 45.3351 279.934 45.0419C279.934 44.7403 279.8 44.5183 279.531 44.3759C279.263 44.2251 278.849 44.0785 278.287 43.9361C277.776 43.802 277.357 43.668 277.031 43.534C276.712 43.3915 276.436 43.1863 276.201 42.9182C275.975 42.6417 275.862 42.2815 275.862 41.8375C275.862 41.4856 275.967 41.1631 276.176 40.8699C276.386 40.5767 276.683 40.3463 277.068 40.1787C277.454 40.0028 277.894 39.9148 278.388 39.9148C279.15 39.9148 279.766 40.1075 280.235 40.4929C280.704 40.8783 280.956 41.406 280.989 42.0763H279.846C279.82 41.716 279.674 41.427 279.406 41.2092C279.146 40.9914 278.794 40.8824 278.35 40.8824C277.94 40.8824 277.613 40.9704 277.37 41.1463C277.127 41.3223 277.006 41.5527 277.006 41.8375C277.006 42.0637 277.077 42.2522 277.219 42.403C277.37 42.5454 277.554 42.6627 277.772 42.7548C277.998 42.8386 278.308 42.935 278.702 43.0439C279.196 43.1779 279.598 43.3119 279.908 43.446C280.218 43.5717 280.482 43.7643 280.7 44.024C280.926 44.2837 281.044 44.623 281.052 45.0419C281.052 45.4189 280.947 45.7582 280.738 46.0598C280.528 46.3614 280.231 46.6001 279.846 46.7761C279.469 46.9436 279.033 47.0274 278.539 47.0274ZM297.025 38.1555L294.486 46.9143H293.204L291.169 39.8646L289.058 46.9143L287.788 46.9269L285.338 38.1555H286.557L288.467 45.5823L290.578 38.1555H291.86L293.87 45.5571L295.793 38.1555H297.025ZM304.559 43.2072C304.559 43.425 304.547 43.6554 304.522 43.8984H299.017C299.059 44.577 299.29 45.1089 299.709 45.4943C300.136 45.8713 300.651 46.0598 301.254 46.0598C301.749 46.0598 302.159 45.9467 302.486 45.7205C302.821 45.4859 303.055 45.176 303.189 44.7906H304.421C304.237 45.4524 303.868 45.9928 303.315 46.4117C302.762 46.8222 302.075 47.0274 301.254 47.0274C300.601 47.0274 300.014 46.8808 299.495 46.5876C298.984 46.2944 298.582 45.8797 298.289 45.3435C297.995 44.799 297.849 44.1706 297.849 43.4586C297.849 42.7465 297.991 42.1223 298.276 41.5862C298.561 41.05 298.959 40.6395 299.47 40.3547C299.989 40.0614 300.584 39.9148 301.254 39.9148C301.908 39.9148 302.486 40.0573 302.988 40.3421C303.491 40.6269 303.876 41.0207 304.145 41.5233C304.421 42.0176 304.559 42.5789 304.559 43.2072ZM303.378 42.9685C303.378 42.5328 303.282 42.16 303.089 41.8501C302.896 41.5317 302.632 41.2929 302.297 41.1338C301.971 40.9662 301.606 40.8824 301.204 40.8824C300.626 40.8824 300.132 41.0668 299.721 41.4354C299.319 41.804 299.089 42.315 299.03 42.9685H303.378ZM312.352 43.2072C312.352 43.425 312.339 43.6554 312.314 43.8984H306.81C306.852 44.577 307.082 45.1089 307.501 45.4943C307.928 45.8713 308.444 46.0598 309.047 46.0598C309.541 46.0598 309.952 45.9467 310.278 45.7205C310.614 45.4859 310.848 45.176 310.982 44.7906H312.214C312.029 45.4524 311.661 45.9928 311.108 46.4117C310.555 46.8222 309.868 47.0274 309.047 47.0274C308.393 47.0274 307.807 46.8808 307.288 46.5876C306.777 46.2944 306.374 45.8797 306.081 45.3435C305.788 44.799 305.641 44.1706 305.641 43.4586C305.641 42.7465 305.784 42.1223 306.069 41.5862C306.354 41.05 306.751 40.6395 307.262 40.3547C307.782 40.0614 308.377 39.9148 309.047 39.9148C309.7 39.9148 310.278 40.0573 310.781 40.3421C311.284 40.6269 311.669 41.0207 311.937 41.5233C312.214 42.0176 312.352 42.5789 312.352 43.2072ZM311.171 42.9685C311.171 42.5328 311.074 42.16 310.882 41.8501C310.689 41.5317 310.425 41.2929 310.09 41.1338C309.763 40.9662 309.399 40.8824 308.997 40.8824C308.419 40.8824 307.924 41.0668 307.514 41.4354C307.112 41.804 306.881 42.315 306.823 42.9685H311.171ZM317.707 46.9143L315.005 43.8732V46.9143H313.861V37.6152H315.005V43.0816L317.656 40.0279H319.252L316.01 43.4586L319.265 46.9143H317.707Z" fill="#B7B7B7"/>
<path d="M328.513 38.4697L334.726 44.0252L340.938 38.4697" fill="#B7B7B7"/>
<path d="M49.519 66.4467C48.9409 66.4467 48.4299 66.3462 47.9859 66.1451C47.5503 65.9441 47.2068 65.6634 46.9555 65.3032C46.7041 64.943 46.5701 64.5408 46.5533 64.0968H47.4832C47.5251 64.5241 47.7136 64.9011 48.0487 65.2278C48.3838 65.5461 48.8739 65.7053 49.519 65.7053C50.1138 65.7053 50.5829 65.5545 50.9264 65.2529C51.2783 64.943 51.4542 64.5534 51.4542 64.0843C51.4542 63.7073 51.3579 63.4057 51.1652 63.1795C50.9725 62.9449 50.7337 62.7732 50.4489 62.6643C50.1641 62.547 49.7703 62.4213 49.2677 62.2873C48.6812 62.1281 48.2163 61.9731 47.8728 61.8223C47.5293 61.6715 47.2361 61.4369 46.9931 61.1186C46.7502 60.8002 46.6287 60.3688 46.6287 59.8243C46.6287 59.3719 46.746 58.9697 46.9806 58.6179C47.2152 58.2576 47.5461 57.977 47.9733 57.7759C48.4006 57.5749 48.8907 57.4743 49.4436 57.4743C50.2562 57.4743 50.9097 57.6754 51.4039 58.0775C51.9066 58.4713 52.1956 58.9823 52.271 59.6106H51.316C51.2573 59.2504 51.0605 58.932 50.7254 58.6556C50.3903 58.3707 49.9379 58.2283 49.3682 58.2283C48.8404 58.2283 48.4006 58.3707 48.0487 58.6556C47.6969 58.932 47.5209 59.3132 47.5209 59.7991C47.5209 60.1677 47.6173 60.4651 47.81 60.6913C48.0026 60.9175 48.2414 61.0893 48.5262 61.2066C48.8195 61.3238 49.2132 61.4495 49.7075 61.5835C50.2772 61.7427 50.7379 61.9019 51.0898 62.0611C51.4416 62.2119 51.739 62.4464 51.982 62.7648C52.2249 63.0831 52.3464 63.5104 52.3464 64.0466C52.3464 64.4571 52.2375 64.8466 52.0197 65.2152C51.8019 65.5838 51.4793 65.8812 51.0521 66.1074C50.6248 66.3336 50.1138 66.4467 49.519 66.4467ZM53.6441 62.9156C53.6441 62.2119 53.7823 61.5961 54.0588 61.0683C54.3436 60.5322 54.7332 60.1217 55.2275 59.8368C55.7301 59.5436 56.2956 59.397 56.9239 59.397C57.5774 59.397 58.1387 59.5478 58.6078 59.8494C59.0853 60.151 59.4288 60.5363 59.6383 61.0055V59.4975H60.5179V66.3588H59.6383V64.8382C59.4204 65.3074 59.0728 65.6969 58.5952 66.0069C58.1261 66.3085 57.5648 66.4593 56.9114 66.4593C56.2914 66.4593 55.7301 66.3127 55.2275 66.0195C54.7332 65.7263 54.3436 65.3116 54.0588 64.7754C53.7823 64.2392 53.6441 63.6193 53.6441 62.9156ZM59.6383 62.9281C59.6383 62.3752 59.5252 61.8893 59.299 61.4704C59.0728 61.0516 58.7628 60.729 58.3691 60.5028C57.9837 60.2766 57.5564 60.1635 57.0873 60.1635C56.6014 60.1635 56.1657 60.2725 55.7804 60.4903C55.395 60.7081 55.0892 61.0264 54.863 61.4453C54.6452 61.8558 54.5363 62.3459 54.5363 62.9156C54.5363 63.4769 54.6452 63.9712 54.863 64.3984C55.0892 64.8173 55.395 65.1398 55.7804 65.366C56.1657 65.5838 56.6014 65.6927 57.0873 65.6927C57.5564 65.6927 57.9837 65.5796 58.3691 65.3535C58.7628 65.1273 59.0728 64.8047 59.299 64.3858C59.5252 63.967 59.6383 63.4811 59.6383 62.9281ZM63.4057 57.0596V66.3588H62.5261V57.0596H63.4057ZM71.6055 62.5763C71.6055 62.8779 71.5971 63.1083 71.5803 63.2674H65.8878C65.9129 63.7868 66.0386 64.2309 66.2648 64.5995C66.491 64.9681 66.7884 65.2487 67.157 65.4414C67.5256 65.6257 67.9277 65.7179 68.3633 65.7179C68.933 65.7179 69.4105 65.5796 69.7959 65.3032C70.1897 65.0267 70.4494 64.6539 70.575 64.1848H71.5049C71.3374 64.855 70.9772 65.4037 70.4242 65.831C69.8797 66.2499 69.1927 66.4593 68.3633 66.4593C67.7183 66.4593 67.1402 66.3169 66.6292 66.032C66.1182 65.7388 65.716 65.3283 65.4228 64.8005C65.138 64.2644 64.9956 63.6402 64.9956 62.9281C64.9956 62.2161 65.138 61.5919 65.4228 61.0558C65.7077 60.5196 66.1056 60.1091 66.6166 59.8243C67.1277 59.5394 67.7099 59.397 68.3633 59.397C69.0168 59.397 69.5865 59.5394 70.0724 59.8243C70.5666 60.1091 70.9436 60.4945 71.2033 60.9804C71.4714 61.4579 71.6055 61.9899 71.6055 62.5763ZM70.7133 62.5512C70.7216 62.0401 70.6169 61.6045 70.3991 61.2443C70.1897 60.884 69.9006 60.6117 69.532 60.4274C69.1634 60.2431 68.7613 60.151 68.3256 60.151C67.6722 60.151 67.1151 60.3604 66.6543 60.7793C66.1936 61.1982 65.938 61.7888 65.8878 62.5512H70.7133ZM49.2174 85.4593C48.4299 85.4593 47.7848 85.2792 47.2822 84.9189C46.7879 84.5503 46.5114 84.0519 46.4528 83.4235H47.3576C47.3995 83.8089 47.5796 84.1231 47.8979 84.366C48.2247 84.6006 48.6603 84.7179 49.2048 84.7179C49.6824 84.7179 50.0552 84.6048 50.3232 84.3786C50.5997 84.1524 50.7379 83.8717 50.7379 83.5366C50.7379 83.3021 50.6625 83.1094 50.5117 82.9586C50.3609 82.8078 50.1683 82.6905 49.9337 82.6067C49.7075 82.5146 49.3975 82.4182 49.0038 82.3177C48.4927 82.1837 48.078 82.0496 47.7597 81.9156C47.4413 81.7815 47.1691 81.5847 46.9429 81.325C46.7251 81.0569 46.6162 80.7008 46.6162 80.2568C46.6162 79.9217 46.7167 79.6117 46.9178 79.3269C47.1188 79.0421 47.4037 78.8159 47.7723 78.6483C48.1409 78.4808 48.5598 78.397 49.0289 78.397C49.7661 78.397 50.3609 78.5855 50.8133 78.9625C51.2657 79.3311 51.5087 79.8421 51.5422 80.4956H50.6625C50.6374 80.0935 50.4782 79.7709 50.185 79.528C49.9002 79.2766 49.5064 79.151 49.0038 79.151C48.5598 79.151 48.1995 79.2557 47.9231 79.4651C47.6466 79.6746 47.5084 79.9343 47.5084 80.2443C47.5084 80.5123 47.588 80.7343 47.7471 80.9103C47.9147 81.0778 48.1199 81.2119 48.3629 81.3124C48.6058 81.4045 48.9326 81.5093 49.3431 81.6266C49.8373 81.7606 50.2311 81.8904 50.5243 82.0161C50.8175 82.1418 51.0688 82.3261 51.2783 82.569C51.4877 82.812 51.5966 83.1345 51.605 83.5366C51.605 83.9053 51.5045 84.2362 51.3034 84.5294C51.1024 84.8142 50.8217 85.0404 50.4615 85.208C50.1012 85.3755 49.6865 85.4593 49.2174 85.4593Z" fill="white" fill-opacity="0.6"/>
<path d="M46.7875 45.7392V43.8961L52.2664 36.0547H54.9975V43.695H56.472V45.7392H54.9975V48.1184H52.6518V45.7392H46.7875ZM52.8026 38.568L49.3678 43.695H52.8026V38.568ZM66.1754 37.9313H60.7468V40.7964C60.9813 40.506 61.3164 40.2714 61.7521 40.0927C62.1877 39.9028 62.6513 39.8078 63.1428 39.8078C64.0364 39.8078 64.768 40.0033 65.3377 40.3943C65.9074 40.7852 66.3207 41.2879 66.5776 41.9022C66.8345 42.5054 66.9629 43.1533 66.9629 43.8458C66.9629 45.1304 66.5943 46.1636 65.8571 46.9455C65.131 47.7275 64.0922 48.1184 62.7406 48.1184C61.4672 48.1184 60.4508 47.8001 59.6912 47.1634C58.9316 46.5267 58.5016 45.6945 58.401 44.6668H60.6797C60.7803 45.1136 61.0037 45.4711 61.35 45.7392C61.7074 46.0073 62.1598 46.1413 62.7071 46.1413C63.3662 46.1413 63.8632 45.9347 64.1983 45.5214C64.5334 45.1081 64.701 44.5607 64.701 43.8794C64.701 43.1868 64.5279 42.6618 64.1816 42.3044C63.8465 41.9358 63.3494 41.7514 62.6904 41.7514C62.2212 41.7514 61.8303 41.8687 61.5175 42.1033C61.2047 42.3379 60.9813 42.6506 60.8473 43.0416H58.6021V35.8704H66.1754V37.9313ZM68.4634 38.0653V35.9039H72.5014V48.1184H70.0887V38.0653H68.4634ZM77.6504 45.6554L75.69 50.3636H74.1821L75.2711 45.6554H77.6504ZM87.283 37.9313H81.8543V40.7964C82.0889 40.506 82.424 40.2714 82.8597 40.0927C83.2953 39.9028 83.7589 39.8078 84.2503 39.8078C85.1439 39.8078 85.8756 40.0033 86.4453 40.3943C87.0149 40.7852 87.4282 41.2879 87.6851 41.9022C87.9421 42.5054 88.0705 43.1533 88.0705 43.8458C88.0705 45.1304 87.7019 46.1636 86.9647 46.9455C86.2386 47.7275 85.1998 48.1184 83.8482 48.1184C82.5748 48.1184 81.5583 47.8001 80.7988 47.1634C80.0392 46.5267 79.6092 45.6945 79.5086 44.6668H81.7873C81.8879 45.1136 82.1113 45.4711 82.4575 45.7392C82.815 46.0073 83.2674 46.1413 83.8147 46.1413C84.4737 46.1413 84.9708 45.9347 85.3059 45.5214C85.641 45.1081 85.8086 44.5607 85.8086 43.8794C85.8086 43.1868 85.6354 42.6618 85.2892 42.3044C84.9541 41.9358 84.457 41.7514 83.7979 41.7514C83.3288 41.7514 82.9378 41.8687 82.6251 42.1033C82.3123 42.3379 82.0889 42.6506 81.9549 43.0416H79.7097V35.8704H87.283V37.9313ZM89.8559 41.852C89.8559 39.9195 90.2021 38.406 90.8947 37.3113C91.5984 36.2167 92.7601 35.6693 94.3797 35.6693C95.9994 35.6693 97.1555 36.2167 97.8481 37.3113C98.5518 38.406 98.9036 39.9195 98.9036 41.852C98.9036 43.7956 98.5518 45.3203 97.8481 46.4261C97.1555 47.532 95.9994 48.0849 94.3797 48.0849C92.7601 48.0849 91.5984 47.532 90.8947 46.4261C90.2021 45.3203 89.8559 43.7956 89.8559 41.852ZM96.5914 41.852C96.5914 41.0254 96.5356 40.3328 96.4239 39.7743C96.3233 39.2047 96.1111 38.7411 95.7872 38.3837C95.4744 38.0262 95.0053 37.8475 94.3797 37.8475C93.7542 37.8475 93.2795 38.0262 92.9556 38.3837C92.6428 38.7411 92.4306 39.2047 92.3189 39.7743C92.2183 40.3328 92.1681 41.0254 92.1681 41.852C92.1681 42.7009 92.2183 43.4158 92.3189 43.9966C92.4194 44.5663 92.6316 45.0299 92.9556 45.3873C93.2795 45.7336 93.7542 45.9067 94.3797 45.9067C95.0053 45.9067 95.48 45.7336 95.8039 45.3873C96.1279 45.0299 96.3401 44.5663 96.4406 43.9966C96.5412 43.4158 96.5914 42.7009 96.5914 41.852ZM103.402 44.6836C103.492 45.1751 103.693 45.5549 104.005 45.823C104.329 46.0799 104.759 46.2083 105.295 46.2083C105.988 46.2083 106.491 45.9235 106.803 45.3538C107.116 44.773 107.273 43.8012 107.273 42.4384C107.016 42.7959 106.653 43.0751 106.183 43.2762C105.726 43.4772 105.228 43.5778 104.692 43.5778C103.977 43.5778 103.33 43.4325 102.749 43.1421C102.179 42.8405 101.727 42.3993 101.392 41.8185C101.056 41.2265 100.889 40.5116 100.889 39.6738C100.889 38.4339 101.257 37.451 101.995 36.7249C102.732 35.9877 103.737 35.6191 105.011 35.6191C106.597 35.6191 107.714 36.1273 108.362 37.1438C109.021 38.1603 109.35 39.6906 109.35 41.7347C109.35 43.1868 109.222 44.3764 108.965 45.3035C108.719 46.2307 108.289 46.9344 107.675 47.4147C107.072 47.895 106.245 48.1352 105.195 48.1352C104.368 48.1352 103.665 47.9788 103.084 47.666C102.503 47.3421 102.056 46.9232 101.743 46.4094C101.442 45.8844 101.269 45.3091 101.224 44.6836H103.402ZM105.178 41.6677C105.759 41.6677 106.217 41.4889 106.552 41.1315C106.887 40.7741 107.055 40.2937 107.055 39.6906C107.055 39.0315 106.876 38.5233 106.519 38.1658C106.172 37.7972 105.698 37.6129 105.094 37.6129C104.491 37.6129 104.011 37.8028 103.653 38.1826C103.307 38.5512 103.134 39.0427 103.134 39.6571C103.134 40.2491 103.302 40.735 103.637 41.1147C103.983 41.4834 104.497 41.6677 105.178 41.6677Z" fill="white"/>
<defs>
<filter id="filter0_d_6_2144" x="-3.08555" y="0.0989895" width="399.171" height="174.096" filterUnits="userSpaceOnUse" color-interpolation-filters="sRGB">
<feFlood flood-opacity="0" result="BackgroundImageFix"/>
<feColorMatrix in="SourceAlpha" type="matrix" values="0 0 0 0 0 0 0 0 0 0 0 0 0 0 0 0 0 0 127 0" result="hardAlpha"/>
<feOffset dy="12.5664"/>
<feGaussianBlur stdDeviation="12.0428"/>
<feColorMatrix type="matrix" values="0 0 0 0 0.243137 0 0 0 0 0.286275 0 0 0 0 0.329412 0 0 0 0.04 0"/>
<feBlend mode="normal" in2="BackgroundImageFix" result="effect1_dropShadow_6_2144"/>
<feBlend mode="normal" in="SourceGraphic" in2="effect1_dropShadow_6_2144" result="shape"/>
</filter>
<filter id="filter1_d_6_2144" x="159.448" y="50.0986" width="127.944" height="78.2855" filterUnits="userSpaceOnUse" color-interpolation-filters="sRGB">
<feFlood flood-opacity="0" result="BackgroundImageFix"/>
<feColorMatrix in="SourceAlpha" type="matrix" values="0 0 0 0 0 0 0 0 0 0 0 0 0 0 0 0 0 0 127 0" result="hardAlpha"/>
<feOffset dy="14.6608"/>
<feGaussianBlur stdDeviation="13.09"/>
<feColorMatrix type="matrix" values="0 0 0 0 0 0 0 0 0 0 0 0 0 0 0 0 0 0 0.16 0"/>
<feBlend mode="normal" in2="BackgroundImageFix" result="effect1_dropShadow_6_2144"/>
<feBlend mode="normal" in="SourceGraphic" in2="effect1_dropShadow_6_2144" result="shape"/>
</filter>
<filter id="filter2_d_6_2144" x="240.363" y="88.4249" width="41.2826" height="41.2846" filterUnits="userSpaceOnUse" color-interpolation-filters="sRGB">
<feFlood flood-opacity="0" result="BackgroundImageFix"/>
<feColorMatrix in="SourceAlpha" type="matrix" values="0 0 0 0 0 0 0 0 0 0 0 0 0 0 0 0 0 0 127 0" result="hardAlpha"/>
<feOffset dy="4.18879"/>
<feGaussianBlur stdDeviation="6.28319"/>
<feColorMatrix type="matrix" values="0 0 0 0 0 0 0 0 0 0 0 0 0 0 0 0 0 0 0.38 0"/>
<feBlend mode="normal" in2="BackgroundImageFix" result="effect1_dropShadow_6_2144"/>
<feBlend mode="normal" in="SourceGraphic" in2="effect1_dropShadow_6_2144" result="shape"/>
</filter>
<linearGradient id="paint0_linear_6_2144" x1="201.677" y1="81.0619" x2="201.677" y2="145.621" gradientUnits="userSpaceOnUse">
<stop stop-color="#13B497" stop-opacity="0.35"/>
<stop offset="1" stop-color="#13B497" stop-opacity="0"/>
</linearGradient>
</defs>
</svg>
