<svg width="67" height="39" viewBox="0 0 67 39" fill="none" xmlns="http://www.w3.org/2000/svg">
<path fill-rule="evenodd" clip-rule="evenodd" d="M8.63036 0.565186L58.5217 0.565186C63.2041 0.565186 66.9999 4.36103 66.9999 9.04345V29.913C66.9999 34.5954 63.2041 38.3913 58.5217 38.3913H8.63036C3.94795 38.3913 0.1521 34.5954 0.1521 29.913V9.04345C0.1521 4.36103 3.94795 0.565186 8.63036 0.565186ZM8.63036 1.21736C4.30813 1.21736 0.804274 4.72122 0.804274 9.04345V29.913C0.804274 34.2352 4.30813 37.7391 8.63036 37.7391H58.5217C62.8439 37.7391 66.3478 34.2352 66.3478 29.913V9.04345C66.3478 4.72122 62.8439 1.21736 58.5217 1.21736H8.63036Z" fill="#EEFFF3" fill-opacity="0.04"/>
<path d="M47.4347 17.5217L51.3477 21.4348L55.2607 17.5217" fill="#D3D6E4"/>
<rect x="1.13037" y="1.21735" width="36.5217" height="36.5217" rx="12" fill="#C4C4C4"/>
<mask id="mask0_6_2048" style="mask-type:alpha" maskUnits="userSpaceOnUse" x="1" y="1" width="37" height="37">
<rect x="1.13037" y="1.21735" width="36.5217" height="36.5217" rx="12" fill="#C4C4C4"/>
</mask>
<g mask="url(#mask0_6_2048)">
<circle cx="19.3911" cy="14.913" r="6.52174" fill="#D9D9D9"/>
<circle cx="19.0652" cy="45.8913" r="22.5" fill="#D9D9D9"/>
</g>
</svg>
